<svg width="24" height="24" viewBox="0 0 24 24" fill="none" xmlns="http://www.w3.org/2000/svg">
    <g clip-path="url(#clip0_1281_6070)">
        <path
            d="M1.5 4.242C2.8275 3.687 4.731 3.0885 6.582 2.9025C8.577 2.7015 10.269 2.997 11.25 4.0305V18.6495C9.8475 17.8545 8.07 17.745 6.4305 17.91C4.6605 18.09 2.8755 18.6015 1.5 19.1265V4.242ZM12.75 4.0305C13.731 2.997 15.423 2.7015 17.418 2.9025C19.269 3.0885 21.1725 3.687 22.5 4.242V19.1265C21.123 18.6015 19.3395 18.0885 17.5695 17.9115C15.9285 17.745 14.1525 17.853 12.75 18.6495V4.0305ZM12 2.6745C10.5225 1.404 8.3805 1.215 6.4305 1.41C4.1595 1.6395 1.8675 2.418 0.4395 3.0675C0.308474 3.1271 0.197363 3.22313 0.119432 3.34415C0.0415 3.46517 3.98571e-05 3.60606 0 3.75L0 20.25C3.4743e-05 20.3755 0.0315557 20.499 0.0916756 20.6091C0.151796 20.7193 0.238593 20.8126 0.344116 20.8805C0.44964 20.9484 0.570517 20.9887 0.695675 20.9978C0.820833 21.0069 0.946271 20.9845 1.0605 20.9325C2.3835 20.3325 4.515 19.611 6.5805 19.4025C8.694 19.1895 10.4655 19.533 11.415 20.718C11.4853 20.8056 11.5743 20.8763 11.6756 20.9249C11.7768 20.9734 11.8877 20.9987 12 20.9987C12.1123 20.9987 12.2232 20.9734 12.3244 20.9249C12.4257 20.8763 12.5147 20.8056 12.585 20.718C13.5345 19.533 15.306 19.1895 17.418 19.4025C19.485 19.611 21.618 20.3325 22.9395 20.9325C23.0537 20.9845 23.1792 21.0069 23.3043 20.9978C23.4295 20.9887 23.5504 20.9484 23.6559 20.8805C23.7614 20.8126 23.8482 20.7193 23.9083 20.6091C23.9684 20.499 24 20.3755 24 20.25V3.75C24 3.60606 23.9585 3.46517 23.8806 3.34415C23.8026 3.22313 23.6915 3.1271 23.5605 3.0675C22.1325 2.418 19.8405 1.6395 17.5695 1.41C15.6195 1.2135 13.4775 1.404 12 2.6745Z"
            fill="#383F4D" />
        <path
            d="M7.328 15.056C7.2 15.056 7.09867 15.0213 7.024 14.952C6.94933 14.8773 6.912 14.776 6.912 14.648V13.856H4.768C4.63467 13.856 4.528 13.8267 4.448 13.768C4.368 13.7093 4.328 13.6187 4.328 13.496C4.328 13.4267 4.344 13.352 4.376 13.272C4.41333 13.192 4.47733 13.088 4.568 12.96L6.896 9.576C6.95467 9.48533 7.02133 9.41867 7.096 9.376C7.17067 9.328 7.256 9.304 7.352 9.304C7.464 9.304 7.55467 9.33867 7.624 9.408C7.69867 9.472 7.736 9.57333 7.736 9.712V13.16H8.24C8.368 13.16 8.46133 13.1893 8.52 13.248C8.584 13.3067 8.616 13.392 8.616 13.504C8.616 13.6213 8.584 13.7093 8.52 13.768C8.46133 13.8267 8.368 13.856 8.24 13.856H7.736V14.648C7.736 14.776 7.69867 14.8773 7.624 14.952C7.55467 15.0213 7.456 15.056 7.328 15.056ZM6.912 13.16V10.336H7.128L5.04 13.384V13.16H6.912Z"
            fill="#383F4D" />
        <path
            d="M14.096 15.056C13.9573 15.056 13.848 15.0187 13.768 14.944C13.6933 14.8693 13.656 14.76 13.656 14.616V9.808C13.656 9.664 13.6933 9.55467 13.768 9.48C13.848 9.4 13.96 9.36 14.104 9.36H16.952C17.0693 9.36 17.1547 9.38933 17.208 9.448C17.2667 9.50133 17.296 9.58133 17.296 9.688C17.296 9.8 17.2667 9.88533 17.208 9.944C17.1547 10.0027 17.0693 10.032 16.952 10.032H14.488V11.832H16.792C16.8987 11.832 16.9813 11.8613 17.04 11.92C17.104 11.9733 17.136 12.0533 17.136 12.16C17.136 12.272 17.104 12.3573 17.04 12.416C16.9813 12.4747 16.8987 12.504 16.792 12.504H14.488V14.616C14.488 14.9093 14.3573 15.056 14.096 15.056ZM19.9089 15.056C19.7756 15.056 19.6716 15.0187 19.5969 14.944C19.5276 14.8693 19.4929 14.7653 19.4929 14.632V10.056H17.7969C17.6849 10.056 17.5969 10.0267 17.5329 9.968C17.4689 9.904 17.4369 9.816 17.4369 9.704C17.4369 9.592 17.4689 9.50667 17.5329 9.448C17.5969 9.38933 17.6849 9.36 17.7969 9.36H22.0129C22.1303 9.36 22.2209 9.38933 22.2849 9.448C22.3489 9.50667 22.3809 9.592 22.3809 9.704C22.3809 9.816 22.3489 9.904 22.2849 9.968C22.2209 10.0267 22.1303 10.056 22.0129 10.056H20.3169V14.632C20.3169 14.7653 20.2823 14.8693 20.2129 14.944C20.1489 15.0187 20.0476 15.056 19.9089 15.056Z"
            fill="#383F4D" />
    </g>
    <defs>
        <clipPath id="clip0_1281_6070">
            <rect width="24" height="24" fill="white" />
        </clipPath>
    </defs>
</svg>
