<svg width="24" height="24" viewBox="0 0 24 24" fill="none" xmlns="http://www.w3.org/2000/svg">
    <path
        d="M2.8125 5.39069H14.4375C14.5406 5.39069 14.625 5.30631 14.625 5.20319V3.89069C14.625 3.78756 14.5406 3.70319 14.4375 3.70319H2.8125C2.70937 3.70319 2.625 3.78756 2.625 3.89069V5.20319C2.625 5.30631 2.70937 5.39069 2.8125 5.39069ZM2.8125 15.3282H14.4375C14.5406 15.3282 14.625 15.2438 14.625 15.1407V13.8282C14.625 13.7251 14.5406 13.6407 14.4375 13.6407H2.8125C2.70937 13.6407 2.625 13.7251 2.625 13.8282V15.1407C2.625 15.2438 2.70937 15.3282 2.8125 15.3282ZM21.1875 18.6094H2.8125C2.70937 18.6094 2.625 18.6938 2.625 18.7969V20.1094C2.625 20.2126 2.70937 20.2969 2.8125 20.2969H21.1875C21.2906 20.2969 21.375 20.2126 21.375 20.1094V18.7969C21.375 18.6938 21.2906 18.6094 21.1875 18.6094ZM21.1875 8.67194H2.8125C2.70937 8.67194 2.625 8.75631 2.625 8.85944V10.1719C2.625 10.2751 2.70937 10.3594 2.8125 10.3594H21.1875C21.2906 10.3594 21.375 10.2751 21.375 10.1719V8.85944C21.375 8.75631 21.2906 8.67194 21.1875 8.67194Z"
        fill="#D2D4D9" />
</svg>
