<svg width="24" height="24" viewBox="0 0 24 24" fill="none" xmlns="http://www.w3.org/2000/svg">
    <path
        d="M6.1875 5.39069H17.8125C17.9156 5.39069 18 5.30631 18 5.20319V3.89069C18 3.78756 17.9156 3.70319 17.8125 3.70319H6.1875C6.08437 3.70319 6 3.78756 6 3.89069V5.20319C6 5.30631 6.08437 5.39069 6.1875 5.39069ZM17.8125 15.3282C17.9156 15.3282 18 15.2438 18 15.1407V13.8282C18 13.7251 17.9156 13.6407 17.8125 13.6407H6.1875C6.08437 13.6407 6 13.7251 6 13.8282V15.1407C6 15.2438 6.08437 15.3282 6.1875 15.3282H17.8125ZM21.1875 18.6094H2.8125C2.70937 18.6094 2.625 18.6938 2.625 18.7969V20.1094C2.625 20.2126 2.70937 20.2969 2.8125 20.2969H21.1875C21.2906 20.2969 21.375 20.2126 21.375 20.1094V18.7969C21.375 18.6938 21.2906 18.6094 21.1875 18.6094ZM21.1875 8.67194H2.8125C2.70937 8.67194 2.625 8.75631 2.625 8.85944V10.1719C2.625 10.2751 2.70937 10.3594 2.8125 10.3594H21.1875C21.2906 10.3594 21.375 10.2751 21.375 10.1719V8.85944C21.375 8.75631 21.2906 8.67194 21.1875 8.67194Z"
        fill="#D2D4D9" />
</svg>
