<svg width="19" height="20" viewBox="0 0 19 20" fill="none" xmlns="http://www.w3.org/2000/svg">
    <path
        d="M15.995 2.097C15.9562 1.52803 15.7028 0.995018 15.2861 0.605735C14.8693 0.216451 14.3203 -5.27171e-05 13.75 9.62841e-09H2.25L2.096 0.00500012C1.52704 0.0440339 0.994127 0.297667 0.605028 0.714612C0.215929 1.13156 -0.000323158 1.6807 3.62474e-07 2.251V17.749L0.00500048 17.903C0.04378 18.472 0.297166 19.005 0.713924 19.3943C1.13068 19.7835 1.67971 20.0001 2.25 20H9.818L8.318 18.5H2.25L2.148 18.493C1.96845 18.4684 1.80389 18.3795 1.68477 18.2429C1.56564 18.1063 1.50001 17.9312 1.5 17.75V2.251L1.507 2.149C1.53165 1.96945 1.62048 1.80489 1.75707 1.68577C1.89366 1.56664 2.06876 1.50101 2.25 1.501H13.75L13.852 1.508C14.0316 1.53265 14.1961 1.62148 14.3152 1.75807C14.4344 1.89466 14.5 2.06976 14.5 2.251V13.818L15.659 12.659C15.765 12.553 15.879 12.459 15.999 12.379V2.25L15.995 2.096V2.097ZM12.288 19.999C12.2627 20.0004 12.2373 20.0004 12.212 19.999C12.0262 19.9897 11.8505 19.9116 11.719 19.78L9.219 17.278C9.07843 17.1372 8.99957 16.9463 8.99976 16.7473C8.99995 16.5483 9.07917 16.3576 9.22 16.217C9.36083 16.0764 9.55173 15.9976 9.75071 15.9978C9.94968 15.9979 10.1404 16.0772 10.281 16.218L12.25 18.189L16.72 13.719C16.7892 13.6474 16.872 13.5903 16.9635 13.551C17.055 13.5118 17.1535 13.4911 17.2531 13.4903C17.3526 13.4895 17.4514 13.5085 17.5435 13.5463C17.6357 13.584 17.7194 13.6398 17.7898 13.7102C17.8602 13.7807 17.9158 13.8644 17.9535 13.9566C17.9912 14.0488 18.0101 14.1476 18.0092 14.2472C18.0083 14.3467 17.9875 14.4451 17.9482 14.5366C17.9088 14.6281 17.8517 14.7108 17.78 14.78L12.78 19.78C12.6488 19.9114 12.4735 19.9894 12.288 19.999ZM9.84 14.5C9.77936 14.4976 9.71864 14.4976 9.658 14.5H7.245C7.04609 14.5 6.85532 14.421 6.71467 14.2803C6.57402 14.1397 6.495 13.9489 6.495 13.75C6.495 13.5511 6.57402 13.3603 6.71467 13.2197C6.85532 13.079 7.04609 13 7.245 13H12.249C12.4479 13 12.6387 13.079 12.7793 13.2197C12.92 13.3603 12.999 13.5511 12.999 13.75C12.999 13.9489 12.92 14.1397 12.7793 14.2803C12.6387 14.421 12.4479 14.5 12.249 14.5H9.84ZM5 5.752C5 6.01722 4.89464 6.27157 4.70711 6.45911C4.51957 6.64664 4.26522 6.752 4 6.752C3.73478 6.752 3.48043 6.64664 3.29289 6.45911C3.10536 6.27157 3 6.01722 3 5.752C3 5.48678 3.10536 5.23243 3.29289 5.04489C3.48043 4.85736 3.73478 4.752 4 4.752C4.26522 4.752 4.51957 4.85736 4.70711 5.04489C4.89464 5.23243 5 5.48678 5 5.752ZM6.496 5.75C6.496 5.55109 6.57502 5.36032 6.71567 5.21967C6.85632 5.07902 7.04709 5 7.246 5H12.25C12.4489 5 12.6397 5.07902 12.7803 5.21967C12.921 5.36032 13 5.55109 13 5.75C13 5.94891 12.921 6.13968 12.7803 6.28033C12.6397 6.42098 12.4489 6.5 12.25 6.5H7.246C7.04709 6.5 6.85632 6.42098 6.71567 6.28033C6.57502 6.13968 6.496 5.94891 6.496 5.75ZM7.246 9C7.04709 9 6.85632 9.07902 6.71567 9.21967C6.57502 9.36032 6.496 9.55109 6.496 9.75C6.496 9.94891 6.57502 10.1397 6.71567 10.2803C6.85632 10.421 7.04709 10.5 7.246 10.5H12.25C12.3485 10.5 12.446 10.4806 12.537 10.4429C12.628 10.4052 12.7107 10.35 12.7803 10.2803C12.85 10.2107 12.9052 10.128 12.9429 10.037C12.9806 9.94602 13 9.84849 13 9.75C13 9.65151 12.9806 9.55398 12.9429 9.46299C12.9052 9.37199 12.85 9.28931 12.7803 9.21967C12.7107 9.15003 12.628 9.09478 12.537 9.05709C12.446 9.0194 12.3485 9 12.25 9H7.246ZM4 10.75C4.26522 10.75 4.51957 10.6446 4.70711 10.4571C4.89464 10.2696 5 10.0152 5 9.75C5 9.48478 4.89464 9.23043 4.70711 9.04289C4.51957 8.85536 4.26522 8.75 4 8.75C3.73478 8.75 3.48043 8.85536 3.29289 9.04289C3.10536 9.23043 3 9.48478 3 9.75C3 10.0152 3.10536 10.2696 3.29289 10.4571C3.48043 10.6446 3.73478 10.75 4 10.75ZM5 13.748C5 14.0132 4.89464 14.2676 4.70711 14.4551C4.51957 14.6426 4.26522 14.748 4 14.748C3.73478 14.748 3.48043 14.6426 3.29289 14.4551C3.10536 14.2676 3 14.0132 3 13.748C3 13.4828 3.10536 13.2284 3.29289 13.0409C3.48043 12.8534 3.73478 12.748 4 12.748C4.26522 12.748 4.51957 12.8534 4.70711 13.0409C4.89464 13.2284 5 13.4828 5 13.748Z"
        fill="#999EAA" />
</svg>
