<svg width="24" height="24" viewBox="0 0 24 24" fill="none" xmlns="http://www.w3.org/2000/svg">
    <path
        d="M16.3547 11.2829C17.1422 10.4626 17.625 9.35397 17.625 8.13522V7.89615C17.625 5.37428 15.5602 3.32819 13.0148 3.32819H6.07969C5.72578 3.32819 5.4375 3.61647 5.4375 3.97037V19.8868C5.4375 20.2688 5.74688 20.5782 6.12891 20.5782H13.5984C16.3406 20.5782 18.5625 18.3704 18.5625 15.6446V15.3868C18.5625 13.6758 17.6859 12.1688 16.3547 11.2829ZM7.6875 5.57819H12.9539C14.2922 5.57819 15.375 6.61881 15.375 7.90553V8.12819C15.375 9.41256 14.2898 10.4555 12.9539 10.4555H7.6875V5.57819ZM16.2797 15.6422C16.2797 17.1165 15.068 18.3118 13.5727 18.3118H7.6875V12.7196H13.5727C15.068 12.7196 16.2797 13.9149 16.2797 15.3891V15.6422Z"
        fill="#D2D4D9" />
</svg>
