<svg width="24" height="24" viewBox="0 0 24 24" fill="none" xmlns="http://www.w3.org/2000/svg">
    <path
        d="M7 7C7 6.46957 7.21071 5.96086 7.58579 5.58579C7.96086 5.21071 8.46957 5 9 5H15C15.5304 5 16.0391 5.21071 16.4142 5.58579C16.7893 5.96086 17 6.46957 17 7V8C17 8.53043 16.7893 9.03914 16.4142 9.41421C16.0391 9.78929 15.5304 10 15 10H9C8.46957 10 7.96086 9.78929 7.58579 9.41421C7.21071 9.03914 7 8.53043 7 8V7ZM9 6.5C8.86739 6.5 8.74021 6.55268 8.64645 6.64645C8.55268 6.74021 8.5 6.86739 8.5 7V8C8.5 8.13261 8.55268 8.25979 8.64645 8.35355C8.74021 8.44732 8.86739 8.5 9 8.5H15C15.1326 8.5 15.2598 8.44732 15.3536 8.35355C15.4473 8.25979 15.5 8.13261 15.5 8V7C15.5 6.86739 15.4473 6.74021 15.3536 6.64645C15.2598 6.55268 15.1326 6.5 15 6.5H9ZM8.25 14.5C8.58152 14.5 8.89946 14.3683 9.13388 14.1339C9.3683 13.8995 9.5 13.5815 9.5 13.25C9.5 12.9185 9.3683 12.6005 9.13388 12.3661C8.89946 12.1317 8.58152 12 8.25 12C7.91848 12 7.60054 12.1317 7.36612 12.3661C7.1317 12.6005 7 12.9185 7 13.25C7 13.5815 7.1317 13.8995 7.36612 14.1339C7.60054 14.3683 7.91848 14.5 8.25 14.5ZM9.5 17.25C9.5 17.5815 9.3683 17.8995 9.13388 18.1339C8.89946 18.3683 8.58152 18.5 8.25 18.5C7.91848 18.5 7.60054 18.3683 7.36612 18.1339C7.1317 17.8995 7 17.5815 7 17.25C7 16.9185 7.1317 16.6005 7.36612 16.3661C7.60054 16.1317 7.91848 16 8.25 16C8.58152 16 8.89946 16.1317 9.13388 16.3661C9.3683 16.6005 9.5 16.9185 9.5 17.25ZM15.75 14.5C16.0815 14.5 16.3995 14.3683 16.6339 14.1339C16.8683 13.8995 17 13.5815 17 13.25C17 12.9185 16.8683 12.6005 16.6339 12.3661C16.3995 12.1317 16.0815 12 15.75 12C15.4185 12 15.1005 12.1317 14.8661 12.3661C14.6317 12.6005 14.5 12.9185 14.5 13.25C14.5 13.5815 14.6317 13.8995 14.8661 14.1339C15.1005 14.3683 15.4185 14.5 15.75 14.5ZM17 17.25C17 17.5815 16.8683 17.8995 16.6339 18.1339C16.3995 18.3683 16.0815 18.5 15.75 18.5C15.4185 18.5 15.1005 18.3683 14.8661 18.1339C14.6317 17.8995 14.5 17.5815 14.5 17.25C14.5 16.9185 14.6317 16.6005 14.8661 16.3661C15.1005 16.1317 15.4185 16 15.75 16C16.0815 16 16.3995 16.1317 16.6339 16.3661C16.8683 16.6005 17 16.9185 17 17.25ZM12 14.5C12.3315 14.5 12.6495 14.3683 12.8839 14.1339C13.1183 13.8995 13.25 13.5815 13.25 13.25C13.25 12.9185 13.1183 12.6005 12.8839 12.3661C12.6495 12.1317 12.3315 12 12 12C11.6685 12 11.3505 12.1317 11.1161 12.3661C10.8817 12.6005 10.75 12.9185 10.75 13.25C10.75 13.5815 10.8817 13.8995 11.1161 14.1339C11.3505 14.3683 11.6685 14.5 12 14.5ZM13.25 17.25C13.25 17.5815 13.1183 17.8995 12.8839 18.1339C12.6495 18.3683 12.3315 18.5 12 18.5C11.6685 18.5 11.3505 18.3683 11.1161 18.1339C10.8817 17.8995 10.75 17.5815 10.75 17.25C10.75 16.9185 10.8817 16.6005 11.1161 16.3661C11.3505 16.1317 11.6685 16 12 16C12.3315 16 12.6495 16.1317 12.8839 16.3661C13.1183 16.6005 13.25 16.9185 13.25 17.25ZM7.25 2C6.38805 2 5.5614 2.34241 4.9519 2.9519C4.34241 3.5614 4 4.38805 4 5.25V18.75C4 19.1768 4.08406 19.5994 4.24739 19.9937C4.41072 20.388 4.65011 20.7463 4.9519 21.0481C5.25369 21.3499 5.61197 21.5893 6.00628 21.7526C6.40059 21.9159 6.8232 22 7.25 22H16.75C17.1768 22 17.5994 21.9159 17.9937 21.7526C18.388 21.5893 18.7463 21.3499 19.0481 21.0481C19.3499 20.7463 19.5893 20.388 19.7526 19.9937C19.9159 19.5994 20 19.1768 20 18.75V5.25C20 4.38805 19.6576 3.5614 19.0481 2.9519C18.4386 2.34241 17.612 2 16.75 2H7.25ZM5.5 5.25C5.5 4.284 6.284 3.5 7.25 3.5H16.75C17.716 3.5 18.5 4.284 18.5 5.25V18.75C18.5 19.2141 18.3156 19.6592 17.9874 19.9874C17.6592 20.3156 17.2141 20.5 16.75 20.5H7.25C6.78587 20.5 6.34075 20.3156 6.01256 19.9874C5.68437 19.6592 5.5 19.2141 5.5 18.75V5.25Z"
        fill="white" />
</svg>
