<svg width="42" height="34" viewBox="0 0 42 34" fill="none" xmlns="http://www.w3.org/2000/svg">
    <path fill-rule="evenodd" clip-rule="evenodd"
        d="M3.65768 1H18.3423C19.8041 1 21 2.12933 21 3.50969C21 2.12933 22.1959 1 23.6577 1H38.3423C39.8041 1 41 2.12933 41 3.50969V30.4903C41 31.8707 39.8041 33 38.3423 33H23.6577C22.1959 33 21 31.8707 21 30.4903C21 31.8707 19.8041 33 18.3423 33H3.65768C2.19592 33 1 31.8707 1 30.4903V3.50969C1 2.12933 2.19592 1 3.65768 1V1Z"
        stroke="#0C33FF" stroke-miterlimit="2.61313" stroke-linecap="round"
        stroke-linejoin="round" />
    <path fill-rule="evenodd" clip-rule="evenodd"
        d="M6.49629 4.04761H19.1869C19.922 4.04761 20.5791 4.38333 21.0002 4.90429C21.4213 4.38402 22.0784 4.04761 22.8135 4.04761H35.5041C36.7673 4.04761 37.8002 5.03981 37.8002 6.25333V27.7467C37.8002 28.9602 36.7673 29.9524 35.5041 29.9524H22.8135C22.0784 29.9524 21.422 29.616 21.0002 29.0957C20.5791 29.6153 19.922 29.9524 19.1869 29.9524H6.49629C5.23305 29.9524 4.2002 28.9609 4.2002 27.7467V6.25333C4.2002 5.04049 5.23305 4.04761 6.49629 4.04761V4.04761Z"
        fill="#0C33FF" />
</svg>
