<svg width="24" height="24" viewBox="0 0 24 24" fill="none" xmlns="http://www.w3.org/2000/svg">
    <path fill-rule="evenodd" clip-rule="evenodd"
        d="M18 8C18 7.60218 18.158 7.22064 18.4393 6.93934C18.7206 6.65804 19.1022 6.5 19.5 6.5C19.8978 6.5 20.2794 6.65804 20.5607 6.93934C20.842 7.22064 21 7.60218 21 8V18.1515L19.5 20.4015L18 18.1515V8ZM19.5 7.5C19.3674 7.5 19.2402 7.55268 19.1464 7.64645C19.0527 7.74021 19 7.86739 19 8V17.8485L19.5 18.5985L20 17.8485V8C20 7.86739 19.9473 7.74021 19.8536 7.64645C19.7598 7.55268 19.6326 7.5 19.5 7.5Z"
        fill="#999EAA" />
    <path fill-rule="evenodd" clip-rule="evenodd"
        d="M20.5 10H18.5V9H20.5V10ZM5 4C4.73478 4 4.48043 4.10536 4.29289 4.29289C4.10536 4.48043 4 4.73478 4 5V19C4 19.2652 4.10536 19.5196 4.29289 19.7071C4.48043 19.8946 4.73478 20 5 20H15C15.2652 20 15.5196 19.8946 15.7071 19.7071C15.8946 19.5196 16 19.2652 16 19V5C16 4.73478 15.8946 4.48043 15.7071 4.29289C15.5196 4.10536 15.2652 4 15 4H5ZM3 5C3 4.46957 3.21071 3.96086 3.58579 3.58579C3.96086 3.21071 4.46957 3 5 3H15C15.5304 3 16.0391 3.21071 16.4142 3.58579C16.7893 3.96086 17 4.46957 17 5V19C17 19.5304 16.7893 20.0391 16.4142 20.4142C16.0391 20.7893 15.5304 21 15 21H5C4.46957 21 3.96086 20.7893 3.58579 20.4142C3.21071 20.0391 3 19.5304 3 19V5Z"
        fill="#999EAA" />
    <path fill-rule="evenodd" clip-rule="evenodd"
        d="M10.0003 7.5C10.0003 7.36739 10.053 7.24021 10.1467 7.14645C10.2405 7.05268 10.3677 7 10.5003 7H14.5003C14.6329 7 14.7601 7.05268 14.8538 7.14645C14.9476 7.24021 15.0003 7.36739 15.0003 7.5C15.0003 7.63261 14.9476 7.75979 14.8538 7.85355C14.7601 7.94732 14.6329 8 14.5003 8H10.5003C10.3677 8 10.2405 7.94732 10.1467 7.85355C10.053 7.75979 10.0003 7.63261 10.0003 7.5ZM10.0003 9.5C10.0003 9.36739 10.053 9.24021 10.1467 9.14645C10.2405 9.05268 10.3677 9 10.5003 9H14.5003C14.6329 9 14.7601 9.05268 14.8538 9.14645C14.9476 9.24021 15.0003 9.36739 15.0003 9.5C15.0003 9.63261 14.9476 9.75979 14.8538 9.85355C14.7601 9.94732 14.6329 10 14.5003 10H10.5003C10.3677 10 10.2405 9.94732 10.1467 9.85355C10.053 9.75979 10.0003 9.63261 10.0003 9.5ZM10.0003 14C10.0003 13.8674 10.053 13.7402 10.1467 13.6464C10.2405 13.5527 10.3677 13.5 10.5003 13.5H14.5003C14.6329 13.5 14.7601 13.5527 14.8538 13.6464C14.9476 13.7402 15.0003 13.8674 15.0003 14C15.0003 14.1326 14.9476 14.2598 14.8538 14.3536C14.7601 14.4473 14.6329 14.5 14.5003 14.5H10.5003C10.3677 14.5 10.2405 14.4473 10.1467 14.3536C10.053 14.2598 10.0003 14.1326 10.0003 14ZM10.0003 16C10.0003 15.8674 10.053 15.7402 10.1467 15.6464C10.2405 15.5527 10.3677 15.5 10.5003 15.5H14.5003C14.6329 15.5 14.7601 15.5527 14.8538 15.6464C14.9476 15.7402 15.0003 15.8674 15.0003 16C15.0003 16.1326 14.9476 16.2598 14.8538 16.3536C14.7601 16.4473 14.6329 16.5 14.5003 16.5H10.5003C10.3677 16.5 10.2405 16.4473 10.1467 16.3536C10.053 16.2598 10.0003 16.1326 10.0003 16ZM6.00028 14V15.5H7.50028V14H6.00028ZM5.50028 13H8.00028C8.13289 13 8.26007 13.0527 8.35384 13.1464C8.44761 13.2402 8.50028 13.3674 8.50028 13.5V16C8.50028 16.1326 8.44761 16.2598 8.35384 16.3536C8.26007 16.4473 8.13289 16.5 8.00028 16.5H5.50028C5.36768 16.5 5.2405 16.4473 5.14673 16.3536C5.05296 16.2598 5.00028 16.1326 5.00028 16V13.5C5.00028 13.3674 5.05296 13.2402 5.14673 13.1464C5.2405 13.0527 5.36768 13 5.50028 13ZM8.85379 7.1465C8.94752 7.24026 9.00018 7.36742 9.00018 7.5C9.00018 7.63258 8.94752 7.75974 8.85379 7.8535L6.50028 10.207L5.14679 8.8535C5.09903 8.80738 5.06094 8.7522 5.03473 8.6912C5.00853 8.6302 4.99474 8.56459 4.99416 8.4982C4.99358 8.43181 5.00623 8.36597 5.03137 8.30452C5.05651 8.24308 5.09364 8.18725 5.14059 8.1403C5.18753 8.09336 5.24336 8.05623 5.30481 8.03109C5.36626 8.00595 5.4321 7.9933 5.49849 7.99387C5.56488 7.99445 5.63049 8.00825 5.69149 8.03445C5.75249 8.06065 5.80766 8.09874 5.85378 8.1465L6.50028 8.793L8.14678 7.1465C8.24055 7.05276 8.3677 7.00011 8.50028 7.00011C8.63287 7.00011 8.76002 7.05276 8.85379 7.1465Z"
        fill="#999EAA" />
</svg>
