<svg width="20" height="14" viewBox="0 0 20 14" fill="none" xmlns="http://www.w3.org/2000/svg">
    <path fill-rule="evenodd" clip-rule="evenodd"
        d="M9.5365 10.0375C9.34692 10.0588 9.15628 10.0695 8.9655 10.0695H6V12.5C6 12.5 5.597 12.4185 5 12.1885C3.293 11.532 0 9.665 0 5.035C0 2.255 2.254 0 5.035 0H8.965C11.391 0 13.4165 1.7155 13.8935 4H15.9725C17.0407 4.00013 18.0651 4.42457 18.8204 5.17995C19.5757 5.93533 20 6.95979 20 8.028C20 11.6675 17.086 13.173 15.5 13.7225C14.9075 13.928 14.5 14 14.5 14V12.0555H13.028C12.3199 12.0561 11.6242 11.8698 11.0112 11.5155C10.3981 11.1612 9.88944 10.6513 9.5365 10.0375ZM5 9.0695V11.107C4.50178 10.8885 4.02785 10.6184 3.586 10.301C2.291 9.3645 1 7.777 1 5.0345C1.00013 3.96444 1.42531 2.93825 2.182 2.18165C2.9387 1.42505 3.96494 1 5.035 1H8.965C9.9942 1.00002 10.9845 1.39331 11.7333 2.09942C12.482 2.80553 12.9327 3.77107 12.993 4.7985C12.9573 5.49071 12.7788 6.16805 12.4687 6.78794C12.1586 7.40782 11.7235 7.95685 11.191 8.4005C10.5313 8.83792 9.75705 9.07067 8.9655 9.0695H5ZM11.7875 9.2045C11.4433 9.4865 11.069 9.72964 10.6715 9.9295C10.9551 10.2814 11.3141 10.5652 11.7219 10.7601C12.1297 10.955 12.576 11.0559 13.028 11.0555H15.5V12.656C15.9235 12.4898 16.3307 12.2847 16.7165 12.0435C17.9 11.296 19 10.082 19 8.028C19 7.22501 18.681 6.4549 18.1133 5.88706C17.5455 5.31921 16.7755 5.00013 15.9725 5H14V5.035C14 6.7695 13.1225 8.2995 11.7875 9.205V9.2045Z"
        fill="#999EAA" />
</svg>
