<svg width="24" height="24" viewBox="0 0 24 24" fill="none" xmlns="http://www.w3.org/2000/svg">
<path d="M18.7031 3.75006H8.57812C8.475 3.75006 8.39062 3.83444 8.39062 3.93756V5.43756C8.39062 5.54069 8.475 5.62506 8.57812 5.62506H12.825L9.16875 18.3751H5.36719C5.26406 18.3751 5.17969 18.4594 5.17969 18.5626V20.0626C5.17969 20.1657 5.26406 20.2501 5.36719 20.2501H15.4922C15.5953 20.2501 15.6797 20.1657 15.6797 20.0626V18.5626C15.6797 18.4594 15.5953 18.3751 15.4922 18.3751H11.1187L14.775 5.62506H18.7031C18.8062 5.62506 18.8906 5.54069 18.8906 5.43756V3.93756C18.8906 3.83444 18.8062 3.75006 18.7031 3.75006Z" fill="#D2D4D9"/>
</svg>
