<svg width="24" height="24" viewBox="0 0 24 24" fill="none" xmlns="http://www.w3.org/2000/svg">
    <path
        d="M2.40039 4.1975C2.40039 3.2039 3.20559 2.3999 4.20039 2.3999H5.40039C6.39279 2.3999 7.19919 3.2039 7.19919 4.1975V19.7759C7.19919 20.7683 6.39279 21.5723 5.39919 21.5723H4.19919C3.20559 21.5723 2.40039 20.7683 2.40039 19.7759V4.1975ZM4.20039 3.5975C4.04126 3.5975 3.88865 3.66072 3.77613 3.77324C3.6636 3.88576 3.60039 4.03837 3.60039 4.1975V19.7759C3.60071 19.9348 3.66406 20.0871 3.77655 20.1994C3.88904 20.3117 4.04147 20.3747 4.20039 20.3747H5.40039C5.55931 20.3744 5.71162 20.311 5.82388 20.1985C5.93614 20.0861 5.99919 19.9336 5.99919 19.7747V4.1987C5.99919 4.03957 5.93598 3.88696 5.82345 3.77444C5.71093 3.66192 5.55832 3.5987 5.39919 3.5987H4.19919L4.20039 3.5975ZM8.39799 4.1975C8.39799 3.2039 9.20439 2.3999 10.198 2.3999H11.398C12.3916 2.3999 13.1968 3.2039 13.1968 4.1975V19.7759C13.1968 20.7683 12.3916 21.5723 11.3968 21.5723H10.1968C9.20439 21.5723 8.39799 20.7683 8.39799 19.7759V4.1975ZM10.198 3.5975C10.0389 3.5975 9.88625 3.66072 9.77373 3.77324C9.6612 3.88576 9.59799 4.03837 9.59799 4.1975V19.7759C9.59831 19.9348 9.66166 20.0871 9.77415 20.1994C9.88664 20.3117 10.0391 20.3747 10.198 20.3747H11.398C11.5571 20.3747 11.7097 20.3115 11.8223 20.199C11.9348 20.0864 11.998 19.9338 11.998 19.7747V4.1987C11.998 4.03957 11.9348 3.88696 11.8223 3.77444C11.7097 3.66192 11.5571 3.5987 11.398 3.5987H10.198V3.5975ZM18.862 7.3883C18.8072 7.15075 18.7047 6.92682 18.5607 6.73008C18.4167 6.53334 18.2343 6.3679 18.0244 6.24379C17.8146 6.11968 17.5817 6.03949 17.34 6.00809C17.0982 5.97669 16.8526 5.99472 16.618 6.0611L15.724 6.3131C15.2875 6.43658 14.9138 6.72053 14.6779 7.10801C14.442 7.49548 14.3613 7.95782 14.452 8.4023L16.8556 20.1623C16.9047 20.4006 17.0016 20.6265 17.1405 20.8264C17.2794 21.0262 17.4573 21.1958 17.6636 21.3249C17.8699 21.454 18.1002 21.5399 18.3406 21.5775C18.581 21.6151 18.8266 21.6035 19.0624 21.5435L20.2444 21.2435C21.1924 21.0035 21.7732 20.0507 21.5548 19.0991L18.862 7.3871V7.3883ZM16.9444 7.2143C17.0226 7.19204 17.1045 7.1859 17.1851 7.19626C17.2658 7.20662 17.3434 7.23325 17.4135 7.27455C17.4835 7.31585 17.5444 7.37095 17.5925 7.4365C17.6406 7.50206 17.6748 7.5767 17.6932 7.6559L20.3848 19.3679C20.4193 19.5204 20.393 19.6803 20.3115 19.8136C20.2299 19.947 20.0995 20.0432 19.948 20.0819L18.766 20.3819C18.6874 20.4019 18.6056 20.4058 18.5255 20.3933C18.4454 20.3808 18.3687 20.3523 18.3 20.3093C18.2312 20.2664 18.1719 20.2099 18.1256 20.1434C18.0792 20.0769 18.0469 20.0017 18.0304 19.9223L15.6268 8.1623C15.5968 8.01427 15.6238 7.86039 15.7023 7.73138C15.7809 7.60236 15.9051 7.50771 16.0504 7.4663L16.9444 7.2143Z"
        fill="#4F5669" />
</svg>
