<svg width="120" height="32" viewBox="0 0 120 32" fill="none" xmlns="http://www.w3.org/2000/svg">
    <path fill-rule="evenodd" clip-rule="evenodd"
        d="M61.1611 6H70.3389C71.2525 6 72 6.74112 72 7.64698C72 6.74112 72.7474 6 73.6611 6H82.8389C83.7525 6 84.5 6.74112 84.5 7.64698V25.353C84.5 26.2589 83.7525 27 82.8389 27H73.6611C72.7474 27 72 26.2589 72 25.353C72 26.2589 71.2525 27 70.3389 27H61.1611C60.2475 27 59.5 26.2589 59.5 25.353V7.64698C59.5 6.74112 60.2475 6 61.1611 6V6Z"
        stroke="#0C33FF" stroke-miterlimit="2.61313" stroke-linecap="round"
        stroke-linejoin="round" />
    <path fill-rule="evenodd" clip-rule="evenodd"
        d="M62.9351 8H70.8667C71.3261 8 71.7368 8.22032 72 8.5622C72.2632 8.22077 72.6739 8 73.1333 8H81.0649C81.8545 8 82.5 8.65113 82.5 9.4475V23.5525C82.5 24.3489 81.8545 25 81.0649 25H73.1333C72.6739 25 72.2636 24.7792 72 24.4378C71.7368 24.7788 71.3261 25 70.8667 25H62.9351C62.1455 25 61.5 24.3493 61.5 23.5525V9.4475C61.5 8.65158 62.1455 8 62.9351 8Z"
        fill="#0C33FF" />
    <path
        d="M17.5312 29H16.0312L9.5 11.0156V29H7.45312V4.54688H9.07812L15.4844 22.2188V4.54688H17.5312V29Z"
        fill="#4F5669" />
    <path
        d="M55.25 27.2656C55.25 27.776 55.0885 28.1927 54.7656 28.5156C54.4427 28.8385 54.026 29 53.5156 29H45.4531V4.54688H53.4531C53.9635 4.54688 54.3802 4.70833 54.7031 5.03125C55.026 5.35417 55.1875 5.77083 55.1875 6.28125V13.5469C55.1875 14.1927 54.8958 14.7344 54.3125 15.1719C53.7396 15.5156 53.1667 15.8594 52.5938 16.2031L54.4375 17.3906C54.9792 17.724 55.25 18.2448 55.25 18.9531V27.2656ZM53 13.8281V6.46875H47.625V15.2969H50.8281L53 13.8281ZM53.0625 27.0781V18.625L50.8594 17.1875H47.625V27.0781H53.0625Z"
        fill="#0C33FF" />
    <path
        d="M98.6562 29H96.2656L90.625 17.25V29H88.4531V4.54688H90.625V15.5312L95.75 4.54688H98.1094V4.6875L92.5781 16.3281L98.6562 29Z"
        fill="#0C33FF" />
    <path
        d="M111.984 27.2656C111.984 27.776 111.823 28.1927 111.5 28.5156C111.188 28.8385 110.776 29 110.266 29H104.109C103.599 29 103.177 28.8385 102.844 28.5156C102.521 28.1927 102.359 27.776 102.359 27.2656V21.0625H104.531V27.0781H109.812V21.25L103.062 13.0938C102.594 12.5312 102.359 11.9115 102.359 11.2344V6.28125C102.359 5.77083 102.521 5.35417 102.844 5.03125C103.177 4.70833 103.599 4.54688 104.109 4.54688H110.266C110.776 4.54688 111.188 4.70833 111.5 5.03125C111.823 5.35417 111.984 5.77083 111.984 6.28125V11.9688H109.812V6.46875H104.531V11.625L111.312 19.7812C111.76 20.3229 111.984 20.9323 111.984 21.6094V27.2656Z"
        fill="#0C33FF" />
    <path
        d="M33.7812 27.2656C33.7812 27.776 33.6146 28.1927 33.2812 28.5156C32.9583 28.8385 32.5417 29 32.0312 29H25.1875C24.6771 29 24.2604 28.8385 23.9375 28.5156C23.6146 28.1927 23.4531 27.776 23.4531 27.2656V6.28125C23.4531 5.77083 23.6146 5.35417 23.9375 5.03125C24.2604 4.70833 24.6771 4.54688 25.1875 4.54688H32.0312C32.5417 4.54688 32.9583 4.70833 33.2812 5.03125C33.6146 5.35417 33.7812 5.77083 33.7812 6.28125V27.2656ZM31.6094 27.0781V6.46875H25.625V27.0781H31.6094ZM40 4.54688L38.5312 12.2344H37.125L37.7031 4.54688H40Z"
        fill="#4F5669" />
</svg>
