<svg width="24" height="24" viewBox="0 0 24 24" fill="none" xmlns="http://www.w3.org/2000/svg">
    <g clip-path="url(#clip0_1281_17636)">
        <path
            d="M20.2472 1.19251L20.4707 0.969012C20.6389 0.800887 20.8386 0.667542 21.0584 0.576591C21.2781 0.485641 21.5137 0.438865 21.7515 0.438934C21.9893 0.439004 22.2248 0.485918 22.4445 0.576997C22.6642 0.668077 22.8638 0.801538 23.032 0.969762C23.2001 1.13798 23.3334 1.33768 23.4244 1.55743C23.5153 1.77719 23.5621 2.01271 23.562 2.25054C23.562 2.48838 23.5151 2.72387 23.424 2.94357C23.3329 3.16327 23.1994 3.36289 23.0312 3.53101L22.8077 3.75301C23.19 4.1818 23.3939 4.7406 23.3774 5.31485C23.361 5.88911 23.1255 6.43532 22.7192 6.84151L7.28121 22.281C7.1847 22.377 7.06389 22.4449 6.93171 22.4775L0.931712 23.9775C0.806151 24.0088 0.674636 24.007 0.549952 23.9724C0.425267 23.9378 0.311655 23.8716 0.220158 23.7801C0.128662 23.6886 0.0623935 23.575 0.0277954 23.4503C-0.00680273 23.3256 -0.00855382 23.1941 0.0227123 23.0685L1.52271 17.0685C1.55553 16.9369 1.62344 16.8166 1.71921 16.7205L16.1822 2.25751C16.0376 2.15571 15.8616 2.1083 15.6854 2.12367C15.5092 2.13904 15.344 2.2162 15.2192 2.34151L10.2812 7.28101C10.2115 7.35074 10.1287 7.40606 10.0376 7.4438C9.94648 7.48154 9.84883 7.50096 9.75021 7.50096C9.6516 7.50096 9.55395 7.48153 9.46284 7.4438C9.37173 7.40606 9.28894 7.35074 9.21921 7.28101C9.14948 7.21128 9.09416 7.1285 9.05643 7.03739C9.01869 6.94628 8.99926 6.84863 8.99926 6.75001C8.99926 6.6514 9.01869 6.55375 9.05643 6.46264C9.09416 6.37153 9.14948 6.28874 9.21921 6.21901L14.1602 1.28101C14.5667 0.874534 15.1133 0.639043 15.6879 0.622865C16.2625 0.606686 16.8215 0.811048 17.2502 1.19401C17.6624 0.82567 18.1957 0.62193 18.7484 0.621653C19.3012 0.621376 19.8347 0.824583 20.2472 1.19251Z"
            fill="#4F5669" />
    </g>
    <defs>
        <clipPath id="clip0_1281_17636">
            <rect width="24" height="24" fill="white" />
        </clipPath>
    </defs>
</svg>
