<svg width="24" height="24" viewBox="0 0 24 24" fill="none" xmlns="http://www.w3.org/2000/svg">
    <path fill-rule="evenodd" clip-rule="evenodd"
        d="M7.37606 0.100747C7.20681 0.0581258 7.02783 0.0784373 6.87244 0.157903C6.71704 0.237368 6.59579 0.370576 6.53126 0.532747L5.04646 4.24475L1.33286 5.73275C1.23045 5.77382 1.13884 5.83788 1.06512 5.91999C0.9914 6.00209 0.937537 6.10005 0.907693 6.20628C0.877849 6.31251 0.872822 6.42418 0.892999 6.53267C0.913176 6.64115 0.958018 6.74355 1.02406 6.83195L3.21766 9.75835L1.70086 15.8255C1.65934 15.9927 1.67913 16.1692 1.75663 16.3231C1.83413 16.4769 1.96421 16.5978 2.12326 16.6639L6.72006 18.5807L9.00006 21.9999C9.08472 22.1269 9.20751 22.2236 9.35072 22.2763C9.49393 22.3289 9.65016 22.3347 9.79686 22.2927L15.3969 20.6927C15.4065 20.6898 15.4161 20.6866 15.4257 20.6831L20.2257 19.0831C20.3438 19.0437 20.4496 18.9744 20.5329 18.8818C20.6162 18.7893 20.6741 18.6767 20.7009 18.5551L22.3009 11.3551C22.3307 11.2202 22.3211 11.0794 22.2732 10.9498C22.2252 10.8201 22.141 10.707 22.0305 10.6239L19.1185 8.43995V4.79995C19.1183 4.66633 19.0809 4.53539 19.0106 4.4218C18.9402 4.3082 18.8396 4.21643 18.7201 4.15675L13.9201 1.75675C13.8732 1.73275 13.8238 1.71397 13.7729 1.70075L7.37286 0.100747H7.37606ZM18.2913 9.61915L20.4401 11.2303L16.3393 14.6463C16.2362 14.7323 16.1591 14.8453 16.1169 14.9727L14.8049 18.9039L12.3809 17.3887C12.3006 17.3386 12.2113 17.3048 12.1179 17.2892C12.0246 17.2737 11.9291 17.2766 11.8369 17.2979C11.7447 17.3193 11.6576 17.3585 11.5806 17.4135C11.5036 17.4685 11.4382 17.5381 11.3881 17.6183C11.3379 17.6986 11.3041 17.788 11.2886 17.8813C11.273 17.9746 11.2759 18.0701 11.2972 18.1623C11.3186 18.2545 11.3578 18.3416 11.4128 18.4186C11.4678 18.4956 11.5374 18.561 11.6177 18.6111L13.4449 19.7519L9.90886 20.7631L7.79686 17.5999C7.71841 17.4825 7.60712 17.3906 7.47686 17.3359L3.24806 15.5743L4.56166 10.3199H8.00006C8.09461 10.3199 8.18824 10.3013 8.27559 10.2651C8.36295 10.229 8.44232 10.1759 8.50918 10.1091C8.57604 10.0422 8.62907 9.96283 8.66526 9.87548C8.70144 9.78812 8.72006 9.6945 8.72006 9.59995C8.72006 9.50539 8.70144 9.41177 8.66526 9.32442C8.62907 9.23706 8.57604 9.15769 8.50918 9.09083C8.44232 9.02397 8.36295 8.97094 8.27559 8.93475C8.18824 8.89857 8.09461 8.87995 8.00006 8.87995H4.36006L2.73926 6.71995L5.62246 5.56635L10.1729 7.08315C10.3125 7.12943 10.4629 7.13186 10.6039 7.0901C10.7449 7.04833 10.8698 6.96439 10.9617 6.84955L13.7985 3.30395L17.6801 5.24475V8.31195L14.1329 9.73115C14.0356 9.77005 13.9479 9.82972 13.8761 9.90599C13.8042 9.98226 13.7499 10.0733 13.7169 10.1727L12.9169 12.5727C12.8864 12.6626 12.874 12.7576 12.8804 12.8523C12.8867 12.947 12.9118 13.0395 12.954 13.1245C12.9963 13.2095 13.0549 13.2853 13.1266 13.3475C13.1982 13.4098 13.2815 13.4572 13.3715 13.4872C13.4616 13.5171 13.5567 13.529 13.6513 13.522C13.746 13.5151 13.8383 13.4895 13.9231 13.4468C14.0078 13.404 14.0832 13.3449 14.1451 13.2729C14.2069 13.2009 14.2538 13.1174 14.2833 13.0271L14.9761 10.9439L18.2897 9.61915H18.2913Z"
        fill="white" />
    <path fill-rule="evenodd" clip-rule="evenodd"
        d="M12.3374 2.82555L10.1518 5.55835L6.55176 4.35835L7.63496 1.65115L12.3374 2.82555ZM16.3374 18.8624L19.3854 17.8464L20.4398 13.104L17.4174 15.6224L16.3374 18.8624Z"
        fill="white" />
</svg>
