<svg width="24" height="24" viewBox="0 0 24 24" fill="none" xmlns="http://www.w3.org/2000/svg">
    <path
        d="M22.0575 16.2525L7.75504 1.93499C7.61573 1.79552 7.45029 1.68488 7.2682 1.6094C7.0861 1.53391 6.89091 1.49506 6.69379 1.49506C6.49666 1.49506 6.30147 1.53391 6.11938 1.6094C5.93728 1.68488 5.77185 1.79552 5.63254 1.93499L1.94254 5.63249C1.66316 5.91353 1.50635 6.29371 1.50635 6.68999C1.50635 7.08627 1.66316 7.46644 1.94254 7.74749L16.245 22.065C16.3852 22.204 16.5514 22.314 16.7342 22.3886C16.9169 22.4633 17.1126 22.5011 17.31 22.5C17.7061 22.5003 18.0863 22.3439 18.3675 22.065L22.0575 18.3675C22.3369 18.0864 22.4937 17.7063 22.4937 17.31C22.4937 16.9137 22.3369 16.5335 22.0575 16.2525ZM17.31 21L3.00004 6.68999L6.69004 2.99999L9.53254 5.84249L7.84504 7.49999L8.90254 8.55749L10.59 6.89999L13.6875 9.99749L12 11.685L13.065 12.75L14.7525 11.0625L17.85 14.16L16.1625 15.8475L17.25 16.905L18.9375 15.2175L21 17.31L17.31 21Z"
        fill="#383F4D" />
</svg>
