<svg width="66" height="66" viewBox="0 0 66 66" fill="none" xmlns="http://www.w3.org/2000/svg">
    <circle cx="33" cy="33" r="32" stroke="#383F4D" />
    <path fill-rule="evenodd" clip-rule="evenodd"
        d="M11 37.8652H30.377C31.2533 45.7223 33.6902 52.2346 38.2882 57.8605C36.253 58.6083 15.772 64.4657 11.0007 37.8652H11Z"
        fill="#9F29B5" />
    <path fill-rule="evenodd" clip-rule="evenodd"
        d="M12.5752 34.8916L14.2287 30.2495H34.6911C33.2762 40.471 35.7276 50.8213 39.3565 57.3899C34.0473 50.2783 31.6358 42.7814 32.1916 34.8908H12.5752V34.8916Z"
        fill="#04A7F6" />
    <path fill-rule="evenodd" clip-rule="evenodd"
        d="M17.4473 28.1798L19.8326 22.5112H41.7084C37.7239 33.9504 37.5492 45.3895 41.0729 56.8287C35.9563 48.1462 34.507 38.68 37.1345 28.179H17.4473V28.1798Z"
        fill="#B22023" />
    <path fill-rule="evenodd" clip-rule="evenodd"
        d="M49.7273 32.1113C51.4489 33.4104 53.1705 34.7095 54.8921 36.0087C53.9244 40.5989 53.9147 44.3455 54.9306 47.1912C55.1473 47.8027 54.8123 47.8049 54.498 47.9367C51.008 49.1604 45.3336 52.5353 41.6992 56.2293C43.0741 53.1659 44.425 50.2661 45.8006 47.2018C46.9727 47.4943 47.4968 45.4253 46.4258 45.0171C45.7944 44.7163 44.6479 45.6301 45.5736 47.0381C44.1313 50.0087 42.6181 52.9016 41.1758 55.8722C41.6751 49.695 41.9881 43.5543 41.3182 37.1829C44.8563 37.2819 47.7203 35.7398 49.7273 32.1113Z"
        fill="#033246" />
</svg>
