<svg width="220" height="88" viewBox="0 0 220 88" fill="none" xmlns="http://www.w3.org/2000/svg">
<path fill-rule="evenodd" clip-rule="evenodd" d="M112.344 12H130.868C132.712 12 134.221 13.4822 134.221 15.294C134.221 13.4822 135.729 12 137.573 12H156.097C157.941 12 159.45 13.4822 159.45 15.294V50.706C159.45 52.5178 157.941 54 156.097 54H137.573C135.729 54 134.221 52.5178 134.221 50.706C134.221 52.5178 132.712 54 130.868 54H112.344C110.5 54 108.991 52.5178 108.991 50.706V15.294C108.991 13.4822 110.5 12 112.344 12V12Z" stroke="white" stroke-width="1.20732" stroke-miterlimit="2.61313" stroke-linecap="round" stroke-linejoin="round"/>
<path fill-rule="evenodd" clip-rule="evenodd" d="M115.924 16H131.933C132.86 16 133.689 16.4406 134.22 17.1244C134.751 16.4415 135.58 16 136.507 16H152.516C154.11 16 155.413 17.3023 155.413 18.895V47.105C155.413 48.6977 154.11 50 152.516 50H136.507C135.58 50 134.752 49.5585 134.22 48.8756C133.689 49.5576 132.86 50 131.933 50H115.924C114.33 50 113.027 48.6986 113.027 47.105V18.895C113.027 17.3032 114.33 16 115.924 16Z" fill="white"/>
<path d="M24.2826 58H21.2551L8.07271 22.0312V58H3.94141V9.09375H7.22122L20.1513 44.4375V9.09375H24.2826V58Z" fill="white"/>
<path d="M100.412 54.5312C100.412 55.5521 100.086 56.3854 99.4345 57.0312C98.7828 57.6771 97.9418 58 96.9116 58H80.6387V9.09375H96.7854C97.8156 9.09375 98.6566 9.41667 99.3084 10.0625C99.9601 10.7083 100.286 11.5417 100.286 12.5625V27.0938C100.286 28.3854 99.6973 29.4688 98.52 30.3438C97.3636 31.0312 96.2073 31.7188 95.0509 32.4062L98.7723 34.7812C99.8655 35.4479 100.412 36.4896 100.412 37.9062V54.5312ZM95.8709 27.6562V12.9375H85.0223V30.5938H91.4873L95.8709 27.6562ZM95.997 54.1562V37.25L91.5504 34.375H85.0223V54.1562H95.997Z" fill="white"/>
<path d="M188.021 58H183.196L171.811 34.5V58H167.428V9.09375H171.811V31.0625L182.155 9.09375H186.917V9.375L175.753 32.6562L188.021 58Z" fill="white"/>
<path d="M214.922 54.5312C214.922 55.5521 214.596 56.3854 213.944 57.0312C213.314 57.6771 212.483 58 211.453 58H199.027C197.997 58 197.146 57.6771 196.473 57.0312C195.821 56.3854 195.495 55.5521 195.495 54.5312V42.125H199.879V54.1562H210.538V42.5L196.914 26.1875C195.968 25.0625 195.495 23.8229 195.495 22.4688V12.5625C195.495 11.5417 195.821 10.7083 196.473 10.0625C197.146 9.41667 197.997 9.09375 199.027 9.09375H211.453C212.483 9.09375 213.314 9.41667 213.944 10.0625C214.596 10.7083 214.922 11.5417 214.922 12.5625V23.9375H210.538V12.9375H199.879V23.25L213.566 39.5625C214.47 40.6458 214.922 41.8646 214.922 43.2188V54.5312Z" fill="white"/>
<path d="M57.0807 54.5312C57.0807 55.5521 56.7444 56.3854 56.0716 57.0312C55.4198 57.6771 54.5788 58 53.5486 58H39.7356C38.7054 58 37.8644 57.6771 37.2126 57.0312C36.5609 56.3854 36.235 55.5521 36.235 54.5312V12.5625C36.235 11.5417 36.5609 10.7083 37.2126 10.0625C37.8644 9.41667 38.7054 9.09375 39.7356 9.09375H53.5486C54.5788 9.09375 55.4198 9.41667 56.0716 10.0625C56.7444 10.7083 57.0807 11.5417 57.0807 12.5625V54.5312ZM52.6971 54.1562V12.9375H40.6186V54.1562H52.6971Z" fill="white"/>
<path d="M69.6323 9.09375L66.6679 24.4688H63.8296L64.9965 9.09375H69.6323Z" fill="white"/>
<path d="M103.312 78.6562C103.312 78.0938 103.38 77.5312 103.516 76.9688C103.651 76.4062 103.865 75.901 104.156 75.4531C104.458 75.0052 104.844 74.6406 105.312 74.3594C105.792 74.0781 106.37 73.9375 107.047 73.9375C107.432 73.9375 107.771 74.0104 108.062 74.1562C108.354 74.2917 108.599 74.474 108.797 74.7031C108.995 74.9323 109.141 75.2031 109.234 75.5156C109.339 75.8177 109.391 76.1354 109.391 76.4688C109.391 77 109.266 77.5156 109.016 78.0156C108.776 78.5156 108.448 78.9583 108.031 79.3438C107.625 79.7188 107.156 80.0052 106.625 80.2031C106.094 80.3906 105.552 80.4323 105 80.3281C105.01 80.6302 105.109 80.875 105.297 81.0625C105.495 81.2396 105.729 81.375 106 81.4688C106.271 81.5625 106.552 81.625 106.844 81.6562C107.135 81.6771 107.396 81.6875 107.625 81.6875C107.865 81.6875 108.089 81.6667 108.297 81.625C108.505 81.5833 108.714 81.5365 108.922 81.4844C109.13 81.4323 109.339 81.3854 109.547 81.3438C109.766 81.3021 109.995 81.2812 110.234 81.2812C110.328 81.2812 110.422 81.2865 110.516 81.2969C110.609 81.3073 110.698 81.3333 110.781 81.375C110.865 81.4062 110.932 81.4635 110.984 81.5469C111.036 81.6198 111.062 81.7135 111.062 81.8281C111.062 82.026 110.99 82.1927 110.844 82.3281C110.698 82.4531 110.51 82.5625 110.281 82.6562C110.062 82.75 109.818 82.8229 109.547 82.875C109.276 82.9167 109.01 82.9531 108.75 82.9844C108.5 83.0052 108.266 83.0156 108.047 83.0156C107.839 83.026 107.682 83.0312 107.578 83.0312C106.911 83.0312 106.312 82.9271 105.781 82.7188C105.25 82.5 104.802 82.2031 104.438 81.8281C104.073 81.4427 103.792 80.9844 103.594 80.4531C103.406 79.9115 103.312 79.3125 103.312 78.6562ZM104.969 77.6406C104.969 78.0052 105.016 78.2708 105.109 78.4375C105.214 78.6042 105.458 78.6875 105.844 78.6875C106.115 78.6875 106.38 78.6406 106.641 78.5469C106.901 78.4427 107.135 78.3021 107.344 78.125C107.562 77.9479 107.734 77.7396 107.859 77.5C107.984 77.2604 108.047 77 108.047 76.7188C108.047 76.5625 108.031 76.401 108 76.2344C107.979 76.0677 107.927 75.9167 107.844 75.7812C107.76 75.6354 107.651 75.5208 107.516 75.4375C107.391 75.3438 107.224 75.2969 107.016 75.2969C106.703 75.2969 106.417 75.3698 106.156 75.5156C105.906 75.651 105.693 75.8333 105.516 76.0625C105.339 76.2812 105.203 76.5312 105.109 76.8125C105.016 77.0833 104.969 77.3594 104.969 77.6406ZM111.688 75.125C111.688 75.0938 111.693 75.0677 111.703 75.0469C111.703 75.026 111.708 75 111.719 74.9688C111.76 74.9167 111.823 74.849 111.906 74.7656C111.99 74.6823 112.042 74.6406 112.062 74.6406H115.203C115.203 74.526 115.188 74.3438 115.156 74.0938C115.125 73.8438 115.094 73.5677 115.062 73.2656C115.042 72.9635 115.036 72.651 115.047 72.3281C115.057 71.9948 115.099 71.6979 115.172 71.4375C115.255 71.1667 115.38 70.9479 115.547 70.7812C115.724 70.6042 115.969 70.5156 116.281 70.5156C116.281 71.5677 116.354 72.4115 116.5 73.0469C116.646 73.6823 116.839 74.1719 117.078 74.5156C117.328 74.8594 117.609 75.0833 117.922 75.1875C118.234 75.2917 118.552 75.3385 118.875 75.3281C119.208 75.3073 119.531 75.2552 119.844 75.1719C120.156 75.0885 120.432 75.0312 120.672 75C120.922 74.9688 121.12 74.9948 121.266 75.0781C121.411 75.151 121.484 75.3333 121.484 75.625C121.484 75.8438 121.432 76 121.328 76.0938C121.234 76.1875 121.047 76.2604 120.766 76.3125C120.682 76.3229 120.542 76.3438 120.344 76.375C120.156 76.3958 119.943 76.4167 119.703 76.4375C119.464 76.4583 119.208 76.4844 118.938 76.5156C118.667 76.5365 118.411 76.5573 118.172 76.5781C117.932 76.599 117.714 76.6146 117.516 76.625C117.318 76.625 117.172 76.625 117.078 76.625C117.078 76.6771 117.073 76.7656 117.062 76.8906C117.052 77.0156 117.047 77.099 117.047 77.1406C117.047 77.599 117.12 78.0469 117.266 78.4844C117.411 78.9115 117.568 79.3385 117.734 79.7656C117.911 80.1927 118.073 80.6198 118.219 81.0469C118.365 81.474 118.438 81.9167 118.438 82.375C118.438 82.4583 118.427 82.5469 118.406 82.6406C118.396 82.724 118.365 82.8021 118.312 82.875C118.271 82.9375 118.203 82.9844 118.109 83.0156C118.026 83.0573 117.906 83.0521 117.75 83C117.354 82.8958 117.057 82.6719 116.859 82.3281C116.672 81.9844 116.531 81.5781 116.438 81.1094C116.344 80.6302 116.281 80.125 116.25 79.5938C116.219 79.0625 116.167 78.5677 116.094 78.1094C116.031 77.6406 115.927 77.2448 115.781 76.9219C115.635 76.5885 115.401 76.3854 115.078 76.3125L112.062 75.625C112.021 75.625 111.958 75.5833 111.875 75.5C111.792 75.4062 111.74 75.3385 111.719 75.2969C111.708 75.276 111.703 75.25 111.703 75.2188C111.693 75.1979 111.688 75.1667 111.688 75.125ZM121.766 78.2969C121.766 77.8594 121.859 77.401 122.047 76.9219C122.245 76.4427 122.505 76.0104 122.828 75.625C123.151 75.2292 123.521 74.901 123.938 74.6406C124.365 74.3802 124.812 74.25 125.281 74.25C125.521 74.25 125.76 74.2917 126 74.375C126.24 74.4583 126.453 74.5781 126.641 74.7344C126.839 74.8906 126.995 75.0781 127.109 75.2969C127.234 75.5156 127.297 75.7604 127.297 76.0312C127.109 76.0312 126.938 76.0104 126.781 75.9688C126.635 75.9271 126.49 75.8802 126.344 75.8281C126.198 75.7656 126.052 75.7135 125.906 75.6719C125.771 75.6302 125.62 75.6094 125.453 75.6094C125.026 75.6094 124.677 75.7188 124.406 75.9375C124.146 76.1458 123.938 76.4115 123.781 76.7344C123.625 77.0573 123.516 77.4062 123.453 77.7812C123.401 78.1458 123.375 78.4896 123.375 78.8125C123.375 78.8646 123.375 78.9635 123.375 79.1094C123.385 79.2552 123.391 79.4115 123.391 79.5781C123.401 79.7344 123.406 79.8854 123.406 80.0312C123.417 80.1771 123.427 80.276 123.438 80.3281C123.552 80.5781 123.661 80.7708 123.766 80.9062C123.88 81.0417 124 81.1458 124.125 81.2188C124.25 81.2812 124.385 81.3229 124.531 81.3438C124.677 81.3542 124.849 81.3594 125.047 81.3594C125.318 81.3594 125.552 81.3177 125.75 81.2344C125.958 81.151 126.151 81.0521 126.328 80.9375C126.505 80.8229 126.672 80.6979 126.828 80.5625C126.984 80.4167 127.146 80.2865 127.312 80.1719C127.49 80.0469 127.677 79.9479 127.875 79.875C128.083 79.7917 128.318 79.75 128.578 79.75C128.578 80.2604 128.484 80.7135 128.297 81.1094C128.12 81.5052 127.865 81.8438 127.531 82.125C127.208 82.4062 126.823 82.625 126.375 82.7812C125.938 82.9271 125.458 83 124.938 83C124.448 83 124.005 82.8333 123.609 82.5C123.224 82.1667 122.891 81.7604 122.609 81.2812C122.339 80.7917 122.13 80.276 121.984 79.7344C121.839 79.1927 121.766 78.7135 121.766 78.2969ZM129.906 72.8438C129.906 72.7292 129.917 72.5885 129.938 72.4219C129.969 72.2448 130.016 72.0781 130.078 71.9219C130.151 71.7656 130.24 71.6354 130.344 71.5312C130.448 71.4167 130.583 71.3594 130.75 71.3594C130.76 71.3594 130.786 71.3646 130.828 71.375C130.87 71.3854 130.896 71.3906 130.906 71.3906C131.083 72.0365 131.188 72.6771 131.219 73.3125C131.25 73.9479 131.24 74.5677 131.188 75.1719C131.135 75.7656 131.057 76.3438 130.953 76.9062C130.849 77.4583 130.76 77.9688 130.688 78.4375C130.625 78.9062 130.583 79.3281 130.562 79.7031C130.552 80.0781 130.609 80.3958 130.734 80.6562C130.714 80.4896 130.698 80.2917 130.688 80.0625C130.688 79.8229 130.708 79.5781 130.75 79.3281C130.802 79.0781 130.88 78.8281 130.984 78.5781C131.099 78.3281 131.26 78.1042 131.469 77.9062C131.677 77.7083 131.943 77.5521 132.266 77.4375C132.599 77.3229 133.01 77.2656 133.5 77.2656C134.01 77.2656 134.448 77.3542 134.812 77.5312C135.188 77.7083 135.495 77.9531 135.734 78.2656C135.974 78.5677 136.151 78.9271 136.266 79.3438C136.391 79.75 136.453 80.1875 136.453 80.6562C136.453 80.875 136.448 81.125 136.438 81.4062C136.438 81.6771 136.401 81.9323 136.328 82.1719C136.266 82.401 136.146 82.599 135.969 82.7656C135.802 82.9219 135.552 83 135.219 83C135.219 82.8333 135.229 82.6094 135.25 82.3281C135.271 82.0365 135.281 81.7292 135.281 81.4062C135.292 81.0833 135.281 80.7552 135.25 80.4219C135.229 80.0885 135.161 79.7917 135.047 79.5312C134.932 79.2604 134.771 79.0417 134.562 78.875C134.365 78.6979 134.089 78.6094 133.734 78.6094C133.609 78.6094 133.453 78.6198 133.266 78.6406C133.089 78.651 132.906 78.6979 132.719 78.7812C132.531 78.8646 132.349 78.9948 132.172 79.1719C131.995 79.3385 131.854 79.5729 131.75 79.875C131.646 80.1667 131.583 80.5417 131.562 81C131.552 81.4479 131.609 82 131.734 82.6562C131.661 82.8438 131.568 82.9531 131.453 82.9844C131.349 83.0156 131.214 83.0312 131.047 83.0312C130.714 83.0312 130.438 82.9167 130.219 82.6875C130.01 82.4479 129.849 82.1302 129.734 81.7344C129.62 81.3385 129.542 80.8802 129.5 80.3594C129.469 79.8385 129.458 79.2969 129.469 78.7344C129.479 78.1615 129.505 77.5833 129.547 77C129.599 76.4062 129.646 75.849 129.688 75.3281C129.74 74.7969 129.786 74.3177 129.828 73.8906C129.88 73.4531 129.906 73.1042 129.906 72.8438ZM143.938 76.3125C143.938 76.1354 143.974 75.974 144.047 75.8281C144.13 75.6823 144.271 75.6094 144.469 75.6094C144.479 75.6094 144.495 75.6146 144.516 75.625C144.536 75.625 144.557 75.625 144.578 75.625C144.599 75.625 144.62 75.625 144.641 75.625C144.672 75.6458 144.729 75.6979 144.812 75.7812C144.906 75.8646 144.964 75.9271 144.984 75.9688C145.016 76.0312 145.078 76.1667 145.172 76.375C145.276 76.5833 145.396 76.8281 145.531 77.1094C145.677 77.3802 145.823 77.6719 145.969 77.9844C146.125 78.2865 146.271 78.5781 146.406 78.8594C146.552 79.1406 146.672 79.3854 146.766 79.5938C146.87 79.7917 146.943 79.9219 146.984 79.9844C146.995 80.0156 147.042 80.0781 147.125 80.1719C147.219 80.2552 147.286 80.3073 147.328 80.3281C147.411 80.1823 147.495 79.9635 147.578 79.6719C147.661 79.3802 147.745 79.0625 147.828 78.7188C147.922 78.3646 148.016 78.0052 148.109 77.6406C148.203 77.2656 148.307 76.9323 148.422 76.6406C148.547 76.3385 148.682 76.0938 148.828 75.9062C148.974 75.7083 149.141 75.6094 149.328 75.6094C149.599 75.6094 149.854 75.7135 150.094 75.9219C150.344 76.1302 150.578 76.401 150.797 76.7344C151.026 77.0677 151.24 77.4427 151.438 77.8594C151.646 78.2656 151.839 78.6719 152.016 79.0781C152.203 79.474 152.375 79.8438 152.531 80.1875C152.698 80.5208 152.859 80.7865 153.016 80.9844C153.141 80.9427 153.245 80.8385 153.328 80.6719C153.411 80.5052 153.474 80.3333 153.516 80.1562C153.568 79.9688 153.604 79.7969 153.625 79.6406C153.646 79.474 153.661 79.3646 153.672 79.3125C153.682 79.1979 153.698 79.0208 153.719 78.7812C153.74 78.5312 153.76 78.25 153.781 77.9375C153.812 77.625 153.839 77.3021 153.859 76.9688C153.88 76.6354 153.901 76.3125 153.922 76C153.953 75.6875 153.974 75.4115 153.984 75.1719C154.005 74.9219 154.016 74.7448 154.016 74.6406C154.036 74.6406 154.089 74.6354 154.172 74.625C154.255 74.6042 154.312 74.5938 154.344 74.5938C154.49 74.5938 154.62 74.6094 154.734 74.6406C154.849 74.6719 154.938 74.7812 155 74.9688C155 75.0417 155 75.1719 155 75.3594C155.01 75.5469 155.016 75.75 155.016 75.9688C155.026 76.1771 155.031 76.3802 155.031 76.5781C155.042 76.7656 155.047 76.8958 155.047 76.9688C155.047 77.1354 155.047 77.3958 155.047 77.75C155.057 78.0938 155.052 78.4792 155.031 78.9062C155.021 79.3333 154.99 79.7708 154.938 80.2188C154.885 80.6562 154.802 81.0625 154.688 81.4375C154.583 81.8021 154.438 82.1042 154.25 82.3438C154.062 82.5729 153.828 82.6875 153.547 82.6875C153.224 82.6875 152.922 82.6094 152.641 82.4531C152.359 82.2969 152.094 82.0885 151.844 81.8281C151.604 81.5677 151.375 81.2812 151.156 80.9688C150.938 80.6458 150.734 80.3229 150.547 80C150.37 79.6667 150.203 79.3542 150.047 79.0625C149.901 78.7604 149.771 78.5052 149.656 78.2969C149.573 78.4844 149.495 78.7188 149.422 79C149.359 79.2812 149.286 79.5885 149.203 79.9219C149.12 80.2448 149.026 80.5729 148.922 80.9062C148.818 81.2292 148.698 81.526 148.562 81.7969C148.438 82.0573 148.286 82.2708 148.109 82.4375C147.943 82.6042 147.75 82.6875 147.531 82.6875C147.427 82.6875 147.333 82.6927 147.25 82.7031C147.167 82.7031 147.089 82.6979 147.016 82.6875C146.943 82.6667 146.875 82.6302 146.812 82.5781C146.75 82.526 146.693 82.4427 146.641 82.3281L143.969 76.625C143.969 76.6146 143.964 76.5729 143.953 76.5C143.943 76.4167 143.938 76.3542 143.938 76.3125ZM156.672 77.1406C156.672 77.0781 156.672 76.9792 156.672 76.8438C156.682 76.6979 156.688 76.5469 156.688 76.3906C156.698 76.2344 156.703 76.0833 156.703 75.9375C156.714 75.7917 156.719 75.6875 156.719 75.625C156.833 75.4583 156.979 75.3229 157.156 75.2188C157.344 75.1146 157.531 75.0312 157.719 74.9688C157.75 75.5312 157.839 76.1302 157.984 76.7656C158.13 77.401 158.286 78.0417 158.453 78.6875C158.62 79.3229 158.766 79.9531 158.891 80.5781C159.026 81.2031 159.094 81.7865 159.094 82.3281C159.094 82.7969 158.854 83.0312 158.375 83.0312C158.083 83.0312 157.839 82.9115 157.641 82.6719C157.443 82.4323 157.281 82.1302 157.156 81.7656C157.042 81.3906 156.948 80.9792 156.875 80.5312C156.802 80.0729 156.75 79.625 156.719 79.1875C156.698 78.75 156.682 78.349 156.672 77.9844C156.672 77.6198 156.672 77.3385 156.672 77.1406ZM156.891 71.2812C157.089 71.3646 157.255 71.5 157.391 71.6875C157.526 71.875 157.583 72.0469 157.562 72.2031C157.552 72.349 157.438 72.4531 157.219 72.5156C157 72.5677 156.635 72.5052 156.125 72.3281C156.125 72.0469 156.177 71.8021 156.281 71.5938C156.396 71.3854 156.599 71.2812 156.891 71.2812ZM159.359 75.125C159.359 75.0938 159.365 75.0677 159.375 75.0469C159.375 75.026 159.38 75 159.391 74.9688C159.432 74.9167 159.495 74.849 159.578 74.7656C159.661 74.6823 159.714 74.6406 159.734 74.6406H162.875C162.875 74.526 162.859 74.3438 162.828 74.0938C162.797 73.8438 162.766 73.5677 162.734 73.2656C162.714 72.9635 162.708 72.651 162.719 72.3281C162.729 71.9948 162.771 71.6979 162.844 71.4375C162.927 71.1667 163.052 70.9479 163.219 70.7812C163.396 70.6042 163.641 70.5156 163.953 70.5156C163.953 71.5677 164.026 72.4115 164.172 73.0469C164.318 73.6823 164.51 74.1719 164.75 74.5156C165 74.8594 165.281 75.0833 165.594 75.1875C165.906 75.2917 166.224 75.3385 166.547 75.3281C166.88 75.3073 167.203 75.2552 167.516 75.1719C167.828 75.0885 168.104 75.0312 168.344 75C168.594 74.9688 168.792 74.9948 168.938 75.0781C169.083 75.151 169.156 75.3333 169.156 75.625C169.156 75.8438 169.104 76 169 76.0938C168.906 76.1875 168.719 76.2604 168.438 76.3125C168.354 76.3229 168.214 76.3438 168.016 76.375C167.828 76.3958 167.615 76.4167 167.375 76.4375C167.135 76.4583 166.88 76.4844 166.609 76.5156C166.339 76.5365 166.083 76.5573 165.844 76.5781C165.604 76.599 165.385 76.6146 165.188 76.625C164.99 76.625 164.844 76.625 164.75 76.625C164.75 76.6771 164.745 76.7656 164.734 76.8906C164.724 77.0156 164.719 77.099 164.719 77.1406C164.719 77.599 164.792 78.0469 164.938 78.4844C165.083 78.9115 165.24 79.3385 165.406 79.7656C165.583 80.1927 165.745 80.6198 165.891 81.0469C166.036 81.474 166.109 81.9167 166.109 82.375C166.109 82.4583 166.099 82.5469 166.078 82.6406C166.068 82.724 166.036 82.8021 165.984 82.875C165.943 82.9375 165.875 82.9844 165.781 83.0156C165.698 83.0573 165.578 83.0521 165.422 83C165.026 82.8958 164.729 82.6719 164.531 82.3281C164.344 81.9844 164.203 81.5781 164.109 81.1094C164.016 80.6302 163.953 80.125 163.922 79.5938C163.891 79.0625 163.839 78.5677 163.766 78.1094C163.703 77.6406 163.599 77.2448 163.453 76.9219C163.307 76.5885 163.073 76.3854 162.75 76.3125L159.734 75.625C159.693 75.625 159.63 75.5833 159.547 75.5C159.464 75.4062 159.411 75.3385 159.391 75.2969C159.38 75.276 159.375 75.25 159.375 75.2188C159.365 75.1979 159.359 75.1667 159.359 75.125ZM170.203 72.8438C170.203 72.7292 170.214 72.5885 170.234 72.4219C170.266 72.2448 170.312 72.0781 170.375 71.9219C170.448 71.7656 170.536 71.6354 170.641 71.5312C170.745 71.4167 170.88 71.3594 171.047 71.3594C171.057 71.3594 171.083 71.3646 171.125 71.375C171.167 71.3854 171.193 71.3906 171.203 71.3906C171.38 72.0365 171.484 72.6771 171.516 73.3125C171.547 73.9479 171.536 74.5677 171.484 75.1719C171.432 75.7656 171.354 76.3438 171.25 76.9062C171.146 77.4583 171.057 77.9688 170.984 78.4375C170.922 78.9062 170.88 79.3281 170.859 79.7031C170.849 80.0781 170.906 80.3958 171.031 80.6562C171.01 80.4896 170.995 80.2917 170.984 80.0625C170.984 79.8229 171.005 79.5781 171.047 79.3281C171.099 79.0781 171.177 78.8281 171.281 78.5781C171.396 78.3281 171.557 78.1042 171.766 77.9062C171.974 77.7083 172.24 77.5521 172.562 77.4375C172.896 77.3229 173.307 77.2656 173.797 77.2656C174.307 77.2656 174.745 77.3542 175.109 77.5312C175.484 77.7083 175.792 77.9531 176.031 78.2656C176.271 78.5677 176.448 78.9271 176.562 79.3438C176.688 79.75 176.75 80.1875 176.75 80.6562C176.75 80.875 176.745 81.125 176.734 81.4062C176.734 81.6771 176.698 81.9323 176.625 82.1719C176.562 82.401 176.443 82.599 176.266 82.7656C176.099 82.9219 175.849 83 175.516 83C175.516 82.8333 175.526 82.6094 175.547 82.3281C175.568 82.0365 175.578 81.7292 175.578 81.4062C175.589 81.0833 175.578 80.7552 175.547 80.4219C175.526 80.0885 175.458 79.7917 175.344 79.5312C175.229 79.2604 175.068 79.0417 174.859 78.875C174.661 78.6979 174.385 78.6094 174.031 78.6094C173.906 78.6094 173.75 78.6198 173.562 78.6406C173.385 78.651 173.203 78.6979 173.016 78.7812C172.828 78.8646 172.646 78.9948 172.469 79.1719C172.292 79.3385 172.151 79.5729 172.047 79.875C171.943 80.1667 171.88 80.5417 171.859 81C171.849 81.4479 171.906 82 172.031 82.6562C171.958 82.8438 171.865 82.9531 171.75 82.9844C171.646 83.0156 171.51 83.0312 171.344 83.0312C171.01 83.0312 170.734 82.9167 170.516 82.6875C170.307 82.4479 170.146 82.1302 170.031 81.7344C169.917 81.3385 169.839 80.8802 169.797 80.3594C169.766 79.8385 169.755 79.2969 169.766 78.7344C169.776 78.1615 169.802 77.5833 169.844 77C169.896 76.4062 169.943 75.849 169.984 75.3281C170.036 74.7969 170.083 74.3177 170.125 73.8906C170.177 73.4531 170.203 73.1042 170.203 72.8438ZM184.578 78.6562C184.578 78.0938 184.646 77.5312 184.781 76.9688C184.917 76.4062 185.13 75.901 185.422 75.4531C185.724 75.0052 186.109 74.6406 186.578 74.3594C187.057 74.0781 187.635 73.9375 188.312 73.9375C188.698 73.9375 189.036 74.0104 189.328 74.1562C189.62 74.2917 189.865 74.474 190.062 74.7031C190.26 74.9323 190.406 75.2031 190.5 75.5156C190.604 75.8177 190.656 76.1354 190.656 76.4688C190.656 77 190.531 77.5156 190.281 78.0156C190.042 78.5156 189.714 78.9583 189.297 79.3438C188.891 79.7188 188.422 80.0052 187.891 80.2031C187.359 80.3906 186.818 80.4323 186.266 80.3281C186.276 80.6302 186.375 80.875 186.562 81.0625C186.76 81.2396 186.995 81.375 187.266 81.4688C187.536 81.5625 187.818 81.625 188.109 81.6562C188.401 81.6771 188.661 81.6875 188.891 81.6875C189.13 81.6875 189.354 81.6667 189.562 81.625C189.771 81.5833 189.979 81.5365 190.188 81.4844C190.396 81.4323 190.604 81.3854 190.812 81.3438C191.031 81.3021 191.26 81.2812 191.5 81.2812C191.594 81.2812 191.688 81.2865 191.781 81.2969C191.875 81.3073 191.964 81.3333 192.047 81.375C192.13 81.4062 192.198 81.4635 192.25 81.5469C192.302 81.6198 192.328 81.7135 192.328 81.8281C192.328 82.026 192.255 82.1927 192.109 82.3281C191.964 82.4531 191.776 82.5625 191.547 82.6562C191.328 82.75 191.083 82.8229 190.812 82.875C190.542 82.9167 190.276 82.9531 190.016 82.9844C189.766 83.0052 189.531 83.0156 189.312 83.0156C189.104 83.026 188.948 83.0312 188.844 83.0312C188.177 83.0312 187.578 82.9271 187.047 82.7188C186.516 82.5 186.068 82.2031 185.703 81.8281C185.339 81.4427 185.057 80.9844 184.859 80.4531C184.672 79.9115 184.578 79.3125 184.578 78.6562ZM186.234 77.6406C186.234 78.0052 186.281 78.2708 186.375 78.4375C186.479 78.6042 186.724 78.6875 187.109 78.6875C187.38 78.6875 187.646 78.6406 187.906 78.5469C188.167 78.4427 188.401 78.3021 188.609 78.125C188.828 77.9479 189 77.7396 189.125 77.5C189.25 77.2604 189.312 77 189.312 76.7188C189.312 76.5625 189.297 76.401 189.266 76.2344C189.245 76.0677 189.193 75.9167 189.109 75.7812C189.026 75.6354 188.917 75.5208 188.781 75.4375C188.656 75.3438 188.49 75.2969 188.281 75.2969C187.969 75.2969 187.682 75.3698 187.422 75.5156C187.172 75.651 186.958 75.8333 186.781 76.0625C186.604 76.2812 186.469 76.5312 186.375 76.8125C186.281 77.0833 186.234 77.3594 186.234 77.6406ZM200.016 80.9844C199.62 81.2552 199.276 81.5 198.984 81.7188C198.703 81.9271 198.427 82.1042 198.156 82.25C197.885 82.3958 197.594 82.5052 197.281 82.5781C196.979 82.651 196.604 82.6875 196.156 82.6875C195.188 82.6875 194.469 82.4323 194 81.9219C193.531 81.401 193.297 80.6302 193.297 79.6094C193.297 79.2135 193.349 78.8021 193.453 78.375C193.557 77.9479 193.708 77.526 193.906 77.1094C194.115 76.6823 194.359 76.2812 194.641 75.9062C194.922 75.5208 195.24 75.1823 195.594 74.8906C195.948 74.599 196.323 74.3698 196.719 74.2031C197.125 74.026 197.552 73.9375 198 73.9375C198.75 74.0104 199.339 74.1979 199.766 74.5C200.193 74.7917 200.516 75.1719 200.734 75.6406C200.953 76.099 201.104 76.6146 201.188 77.1875C201.271 77.75 201.333 78.3333 201.375 78.9375C201.427 79.5417 201.49 80.1458 201.562 80.75C201.635 81.3542 201.786 81.9115 202.016 82.4219C201.88 82.7656 201.75 83.0052 201.625 83.1406C201.51 83.2865 201.38 83.3125 201.234 83.2188C201.089 83.125 200.917 82.8958 200.719 82.5312C200.531 82.1667 200.297 81.651 200.016 80.9844ZM194.625 79.6406C194.625 80.2344 194.734 80.6719 194.953 80.9531C195.182 81.224 195.583 81.3594 196.156 81.3594C196.583 81.3594 196.99 81.2865 197.375 81.1406C197.771 80.9844 198.115 80.776 198.406 80.5156C198.698 80.2448 198.932 79.9219 199.109 79.5469C199.286 79.1719 199.375 78.7552 199.375 78.2969C199.375 78.1094 199.38 77.849 199.391 77.5156C199.401 77.1719 199.38 76.8333 199.328 76.5C199.276 76.1667 199.177 75.8802 199.031 75.6406C198.885 75.3906 198.667 75.2656 198.375 75.2656C197.833 75.2656 197.333 75.4062 196.875 75.6875C196.417 75.9583 196.021 76.3073 195.688 76.7344C195.354 77.1615 195.094 77.6354 194.906 78.1562C194.719 78.6667 194.625 79.1615 194.625 79.6406ZM206 82.2969C206.167 82.1823 206.365 82.0365 206.594 81.8594C206.833 81.6719 207.073 81.474 207.312 81.2656C207.552 81.0573 207.776 80.8385 207.984 80.6094C208.193 80.3802 208.354 80.1615 208.469 79.9531C208.594 79.7344 208.656 79.5312 208.656 79.3438C208.656 79.1562 208.562 79 208.375 78.875C208.042 78.875 207.677 78.8906 207.281 78.9219C206.885 78.9427 206.49 78.9531 206.094 78.9531C205.698 78.9427 205.312 78.9062 204.938 78.8438C204.573 78.7812 204.245 78.6667 203.953 78.5C203.661 78.3333 203.427 78.099 203.25 77.7969C203.083 77.4844 203 77.0885 203 76.6094C203 76.0469 203.104 75.5417 203.312 75.0938C203.531 74.6354 203.818 74.2344 204.172 73.8906C204.526 73.5365 204.922 73.2292 205.359 72.9688C205.807 72.6979 206.255 72.4688 206.703 72.2812C206.974 72.3542 207.224 72.4844 207.453 72.6719C207.682 72.8594 207.88 73.0677 208.047 73.2969C207.974 73.526 207.828 73.7031 207.609 73.8281C207.401 73.9531 207.156 74.0625 206.875 74.1562C206.604 74.25 206.318 74.349 206.016 74.4531C205.714 74.5573 205.438 74.6979 205.188 74.875C204.948 75.0417 204.745 75.2656 204.578 75.5469C204.411 75.8177 204.328 76.1771 204.328 76.625C204.328 76.9583 204.411 77.2031 204.578 77.3594C204.745 77.5156 204.964 77.625 205.234 77.6875C205.505 77.7396 205.812 77.7604 206.156 77.75C206.5 77.7292 206.849 77.7031 207.203 77.6719C207.568 77.6406 207.922 77.625 208.266 77.625C208.609 77.6146 208.917 77.6562 209.188 77.75C209.458 77.8333 209.672 77.974 209.828 78.1719C209.995 78.3698 210.078 78.6615 210.078 79.0469C210.078 79.2135 210.021 79.4271 209.906 79.6875C209.802 79.9479 209.656 80.2292 209.469 80.5312C209.292 80.8229 209.078 81.1146 208.828 81.4062C208.589 81.6979 208.333 81.9635 208.062 82.2031C207.802 82.4323 207.536 82.625 207.266 82.7812C207.005 82.9271 206.76 83 206.531 83C206.312 83 206.167 82.9219 206.094 82.7656C206.031 82.6094 206 82.4531 206 82.2969ZM210.703 78.6562C210.703 78.0938 210.771 77.5312 210.906 76.9688C211.042 76.4062 211.255 75.901 211.547 75.4531C211.849 75.0052 212.234 74.6406 212.703 74.3594C213.182 74.0781 213.76 73.9375 214.438 73.9375C214.823 73.9375 215.161 74.0104 215.453 74.1562C215.745 74.2917 215.99 74.474 216.188 74.7031C216.385 74.9323 216.531 75.2031 216.625 75.5156C216.729 75.8177 216.781 76.1354 216.781 76.4688C216.781 77 216.656 77.5156 216.406 78.0156C216.167 78.5156 215.839 78.9583 215.422 79.3438C215.016 79.7188 214.547 80.0052 214.016 80.2031C213.484 80.3906 212.943 80.4323 212.391 80.3281C212.401 80.6302 212.5 80.875 212.688 81.0625C212.885 81.2396 213.12 81.375 213.391 81.4688C213.661 81.5625 213.943 81.625 214.234 81.6562C214.526 81.6771 214.786 81.6875 215.016 81.6875C215.255 81.6875 215.479 81.6667 215.688 81.625C215.896 81.5833 216.104 81.5365 216.312 81.4844C216.521 81.4323 216.729 81.3854 216.938 81.3438C217.156 81.3021 217.385 81.2812 217.625 81.2812C217.719 81.2812 217.812 81.2865 217.906 81.2969C218 81.3073 218.089 81.3333 218.172 81.375C218.255 81.4062 218.323 81.4635 218.375 81.5469C218.427 81.6198 218.453 81.7135 218.453 81.8281C218.453 82.026 218.38 82.1927 218.234 82.3281C218.089 82.4531 217.901 82.5625 217.672 82.6562C217.453 82.75 217.208 82.8229 216.938 82.875C216.667 82.9167 216.401 82.9531 216.141 82.9844C215.891 83.0052 215.656 83.0156 215.438 83.0156C215.229 83.026 215.073 83.0312 214.969 83.0312C214.302 83.0312 213.703 82.9271 213.172 82.7188C212.641 82.5 212.193 82.2031 211.828 81.8281C211.464 81.4427 211.182 80.9844 210.984 80.4531C210.797 79.9115 210.703 79.3125 210.703 78.6562ZM212.359 77.6406C212.359 78.0052 212.406 78.2708 212.5 78.4375C212.604 78.6042 212.849 78.6875 213.234 78.6875C213.505 78.6875 213.771 78.6406 214.031 78.5469C214.292 78.4427 214.526 78.3021 214.734 78.125C214.953 77.9479 215.125 77.7396 215.25 77.5C215.375 77.2604 215.438 77 215.438 76.7188C215.438 76.5625 215.422 76.401 215.391 76.2344C215.37 76.0677 215.318 75.9167 215.234 75.7812C215.151 75.6354 215.042 75.5208 214.906 75.4375C214.781 75.3438 214.615 75.2969 214.406 75.2969C214.094 75.2969 213.807 75.3698 213.547 75.5156C213.297 75.651 213.083 75.8333 212.906 76.0625C212.729 76.2812 212.594 76.5312 212.5 76.8125C212.406 77.0833 212.359 77.3594 212.359 77.6406Z" fill="white"/>
</svg>
