<svg width="24" height="24" viewBox="0 0 24 24" fill="none" xmlns="http://www.w3.org/2000/svg">
<g clip-path="url(#clip0_1281_15397)">
<path d="M10.12 18.14C9.78667 18.14 9.52667 18.0467 9.34 17.86C9.16667 17.6733 9.08 17.4133 9.08 17.08V5.64H4.84C4.56 5.64 4.34 5.56667 4.18 5.42C4.02 5.26 3.94 5.04 3.94 4.76C3.94 4.48 4.02 4.26667 4.18 4.12C4.34 3.97333 4.56 3.9 4.84 3.9H15.38C15.6733 3.9 15.9 3.97333 16.06 4.12C16.22 4.26667 16.3 4.48 16.3 4.76C16.3 5.04 16.22 5.26 16.06 5.42C15.9 5.56667 15.6733 5.64 15.38 5.64H11.14V17.08C11.14 17.4133 11.0533 17.6733 10.88 17.86C10.72 18.0467 10.4667 18.14 10.12 18.14Z" fill="#4F5669"/>
<path d="M13.936 21.072C13.832 21.072 13.74 21.04 13.66 20.976C13.58 20.912 13.536 20.828 13.528 20.724C13.528 20.612 13.58 20.496 13.684 20.376L15.784 17.736V18.24L13.816 15.78C13.712 15.652 13.66 15.536 13.66 15.432C13.668 15.328 13.712 15.244 13.792 15.18C13.872 15.116 13.964 15.084 14.068 15.084C14.188 15.084 14.288 15.108 14.368 15.156C14.456 15.196 14.536 15.264 14.608 15.36L16.324 17.532H15.988L17.716 15.36C17.788 15.264 17.864 15.196 17.944 15.156C18.024 15.108 18.124 15.084 18.244 15.084C18.356 15.084 18.448 15.116 18.52 15.18C18.6 15.244 18.64 15.332 18.64 15.444C18.648 15.548 18.6 15.664 18.496 15.792L16.54 18.216V17.772L18.64 20.376C18.736 20.496 18.78 20.612 18.772 20.724C18.772 20.828 18.732 20.912 18.652 20.976C18.572 21.04 18.476 21.072 18.364 21.072C18.252 21.072 18.152 21.048 18.064 21C17.984 20.96 17.904 20.892 17.824 20.796L15.976 18.468H16.324L14.476 20.796C14.404 20.884 14.324 20.952 14.236 21C14.156 21.048 14.056 21.072 13.936 21.072Z" fill="#4F5669"/>
</g>
<defs>
<clipPath id="clip0_1281_15397">
<rect width="24" height="24" fill="white"/>
</clipPath>
</defs>
</svg>
