<svg width="24" height="24" viewBox="0 0 24 24" fill="none" xmlns="http://www.w3.org/2000/svg">
<g clip-path="url(#clip0_1281_3823)">
<path d="M8.12 20.14C7.78667 20.14 7.52667 20.0467 7.34 19.86C7.16667 19.6733 7.08 19.4133 7.08 19.08V7.64H2.84C2.56 7.64 2.34 7.56667 2.18 7.42C2.02 7.26 1.94 7.04 1.94 6.76C1.94 6.48 2.02 6.26667 2.18 6.12C2.34 5.97333 2.56 5.9 2.84 5.9H13.38C13.6733 5.9 13.9 5.97333 14.06 6.12C14.22 6.26667 14.3 6.48 14.3 6.76C14.3 7.04 14.22 7.26 14.06 7.42C13.9 7.56667 13.6733 7.64 13.38 7.64H9.14V19.08C9.14 19.4133 9.05333 19.6733 8.88 19.86C8.72 20.0467 8.46667 20.14 8.12 20.14Z" fill="#4F5669"/>
<path d="M15.936 10.072C15.832 10.072 15.74 10.04 15.66 9.976C15.58 9.912 15.536 9.828 15.528 9.724C15.528 9.612 15.58 9.496 15.684 9.376L17.784 6.736V7.24L15.816 4.78C15.712 4.652 15.66 4.536 15.66 4.432C15.668 4.328 15.712 4.244 15.792 4.18C15.872 4.116 15.964 4.084 16.068 4.084C16.188 4.084 16.288 4.108 16.368 4.156C16.456 4.196 16.536 4.264 16.608 4.36L18.324 6.532H17.988L19.716 4.36C19.788 4.264 19.864 4.196 19.944 4.156C20.024 4.108 20.124 4.084 20.244 4.084C20.356 4.084 20.448 4.116 20.52 4.18C20.6 4.244 20.64 4.332 20.64 4.444C20.648 4.548 20.6 4.664 20.496 4.792L18.54 7.216V6.772L20.64 9.376C20.736 9.496 20.78 9.612 20.772 9.724C20.772 9.828 20.732 9.912 20.652 9.976C20.572 10.04 20.476 10.072 20.364 10.072C20.252 10.072 20.152 10.048 20.064 10C19.984 9.96 19.904 9.892 19.824 9.796L17.976 7.468H18.324L16.476 9.796C16.404 9.884 16.324 9.952 16.236 10C16.156 10.048 16.056 10.072 15.936 10.072Z" fill="#4F5669"/>
</g>
<defs>
<clipPath id="clip0_1281_3823">
<rect width="24" height="24" fill="white"/>
</clipPath>
</defs>
</svg>
