<svg width="24" height="24" viewBox="0 0 24 24" fill="none" xmlns="http://www.w3.org/2000/svg">
    <path
        d="M21.75 3.75H2.25C1.83516 3.75 1.5 4.08516 1.5 4.5V19.5C1.5 19.9148 1.83516 20.25 2.25 20.25H21.75C22.1648 20.25 22.5 19.9148 22.5 19.5V4.5C22.5 4.08516 22.1648 3.75 21.75 3.75ZM20.8125 8.625H15.8438V5.4375H20.8125V8.625ZM20.8125 13.875H15.8438V10.125H20.8125V13.875ZM9.65625 10.125H14.3438V13.875H9.65625V10.125ZM14.3438 8.625H9.65625V5.4375H14.3438V8.625ZM3.1875 10.125H8.15625V13.875H3.1875V10.125ZM3.1875 5.4375H8.15625V8.625H3.1875V5.4375ZM3.1875 15.375H8.15625V18.5625H3.1875V15.375ZM9.65625 15.375H14.3438V18.5625H9.65625V15.375ZM20.8125 18.5625H15.8438V15.375H20.8125V18.5625Z"
        fill="white" />
</svg>
