<svg width="10" height="20" viewBox="0 0 10 20" fill="none" xmlns="http://www.w3.org/2000/svg">
    <path
        d="M8.44005 19.3334C8.24086 19.3341 8.04405 19.2901 7.86407 19.2047C7.6841 19.1193 7.52555 18.9947 7.40005 18.84L0.960056 10.84C0.763947 10.6015 0.656738 10.3022 0.656738 9.99338C0.656738 9.68454 0.763947 9.38529 0.960056 9.14671L7.62672 1.14671C7.85304 0.87442 8.17825 0.703187 8.53082 0.670681C8.88339 0.638175 9.23443 0.747057 9.50672 0.973375C9.77901 1.19969 9.95024 1.52491 9.98275 1.87748C10.0153 2.23005 9.90637 2.58109 9.68005 2.85338L3.72005 10L9.48005 17.1467C9.6431 17.3424 9.74667 17.5807 9.77851 17.8335C9.81034 18.0862 9.76912 18.3428 9.65971 18.5728C9.55031 18.8028 9.37729 18.9967 9.16115 19.1315C8.945 19.2663 8.69477 19.3364 8.44005 19.3334Z"
        fill="#4F5669" />
</svg>
