<svg width="10" height="20" viewBox="0 0 10 20" fill="none" xmlns="http://www.w3.org/2000/svg">
    <path
        d="M1.55995 19.3334C1.75914 19.3341 1.95595 19.2901 2.13593 19.2047C2.3159 19.1193 2.47445 18.9947 2.59995 18.84L9.03994 10.84C9.23605 10.6015 9.34326 10.3022 9.34326 9.99338C9.34326 9.68454 9.23605 9.38529 9.03994 9.14671L2.37328 1.14671C2.14696 0.87442 1.82175 0.703187 1.46918 0.670681C1.11661 0.638175 0.765569 0.747057 0.49328 0.973375C0.220991 1.19969 0.0497592 1.52491 0.0172529 1.87748C-0.0152534 2.23005 0.0936285 2.58109 0.319947 2.85338L6.27995 10L0.519947 17.1467C0.356903 17.3424 0.253334 17.5807 0.221494 17.8335C0.189655 18.0862 0.230877 18.3428 0.340285 18.5728C0.449693 18.8028 0.622706 18.9967 0.838853 19.1315C1.055 19.2663 1.30523 19.3364 1.55995 19.3334Z"
        fill="#4F5669" />
</svg>
