<svg width="24" height="24" viewBox="0 0 24 24" fill="none" xmlns="http://www.w3.org/2000/svg">
<path d="M19.3125 18.8438H4.6875C4.58437 18.8438 4.5 18.9235 4.5 19.0219V20.4469C4.5 20.5454 4.58437 20.6251 4.6875 20.6251H19.3125C19.4156 20.6251 19.5 20.5454 19.5 20.4469V19.0219C19.5 18.9235 19.4156 18.8438 19.3125 18.8438ZM12 17.0626C13.6266 17.0626 15.1547 16.4274 16.3078 15.2766C17.4609 14.1258 18.0938 12.5954 18.0938 10.9688V3.65631C18.0938 3.50162 17.9672 3.37506 17.8125 3.37506H16.4062C16.2516 3.37506 16.125 3.50162 16.125 3.65631V10.9688C16.125 13.2422 14.2734 15.0938 12 15.0938C9.72656 15.0938 7.875 13.2422 7.875 10.9688V3.65631C7.875 3.50162 7.74844 3.37506 7.59375 3.37506H6.1875C6.03281 3.37506 5.90625 3.50162 5.90625 3.65631V10.9688C5.90625 12.5954 6.54141 14.1235 7.69219 15.2766C8.84297 16.4297 10.3734 17.0626 12 17.0626Z" fill="#D2D4D9"/>
</svg>
