<svg width="22" height="20" viewBox="0 0 22 20" fill="none" xmlns="http://www.w3.org/2000/svg">
<path d="M2 8V18.5H20V8H2ZM1.25 6.5H20.75C20.9489 6.5 21.1397 6.57902 21.2803 6.71967C21.421 6.86032 21.5 7.05109 21.5 7.25V19.25C21.5 19.4489 21.421 19.6397 21.2803 19.7803C21.1397 19.921 20.9489 20 20.75 20H1.25C1.05109 20 0.860322 19.921 0.71967 19.7803C0.579018 19.6397 0.5 19.4489 0.5 19.25V7.25C0.5 7.05109 0.579018 6.86032 0.71967 6.71967C0.860322 6.57902 1.05109 6.5 1.25 6.5ZM2.75 3.5H19.25V5H2.75V3.5ZM5 0.5H17V2H5V0.5Z" fill="#999EAA"/>
</svg>
